<?xml version="1.0" encoding="utf-8"?>
<!-- Generator: Adobe Illustrator 19.1.0, SVG Export Plug-In . SVG Version: 6.00 Build 0)  -->
<svg version="1.1" id="Layer_1" xmlns="http://www.w3.org/2000/svg" xmlns:xlink="http://www.w3.org/1999/xlink" x="0px" y="0px"
	 viewBox="0 0 127.4 10.5" style="enable-background:new 0 0 127.4 10.5;" xml:space="preserve">
<style type="text/css">
	.st0{fill:#949EA8;}
	.st1{fill:#CEC08B;}
</style>
<g>
	<g>
		<path class="st0" d="M5.2,4.9L2.8,4.3C2,4.1,1.3,3.7,1.3,2.8c0-1.5,1.2-2,2.5-2c1.4,0,2.7,0.8,2.7,2.3h1c0-2-1.7-3.1-3.7-3.1
			C1,0,0.3,1.8,0.3,2.8c0,1.6,1.1,2.1,2.3,2.4l2.2,0.5C5.7,6,6.9,6.4,6.9,7.6c0,1.5-1.6,2-2.6,2C2.4,9.6,0.9,9,1,6.9H0
			c-0.1,2.4,1.6,3.5,4,3.5c3.5,0,3.8-2.2,3.8-2.9C7.8,5.9,6.6,5.3,5.2,4.9z M13.8,9.6c-2.6,0-3.8-2.2-3.8-4.4c0-2.2,1.1-4.4,3.8-4.4
			c1.5,0,2.7,0.9,3.1,2.4h1c-0.3-2.1-2.1-3.2-4-3.2C10.6,0,9,2.5,9,5.2c0,2.7,1.6,5.2,4.7,5.2c2.3,0,3.9-1.6,4.2-4h-1
			C16.8,8.2,15.6,9.6,13.8,9.6z M25.2,5.4L25.2,5.4c1.3-0.3,1.9-1.3,1.9-2.6c0-1.8-1.4-2.6-3-2.6h-4.6v10h1V5.8h3.6
			c1.8-0.1,1.9,1.5,2,2.9c0,0.4,0,1.2,0.3,1.6h1.1C27,9.7,27,8.3,26.9,7.6C26.9,6.5,26.5,5.6,25.2,5.4z M24,5h-3.6V1H24
			c1.4,0,2.2,0.8,2.2,2C26.2,4.2,25.2,5,24,5z M33.7,0C30.5,0,29,2.5,29,5.2c0,2.7,1.6,5.2,4.7,5.2c3.1,0,4.7-2.5,4.7-5.2
			C38.4,2.5,36.8,0,33.7,0z M33.7,9.6c-2.6,0-3.8-2.2-3.8-4.4c0-2.2,1.1-4.4,3.8-4.4c2.6,0,3.8,2.2,3.8,4.4
			C37.5,7.4,36.3,9.6,33.7,9.6z M41.5,0.2h-1v10h6.6V9.4h-5.6V0.2z M49.5,0.2h-1v10h6.6V9.4h-5.6V0.2z M66,0.2h-3.5v10H66
			c3-0.1,4.6-1.7,4.6-5C70.6,1.9,69,0.3,66,0.2z M65.5,9.4h-2V1h2c2.9,0,4.1,1.2,4.1,4.2C69.6,8.2,68.4,9.4,65.5,9.4z M76.7,0
			C73.5,0,72,2.5,72,5.2c0,2.7,1.6,5.2,4.7,5.2c3.1,0,4.7-2.5,4.7-5.2C81.4,2.5,79.8,0,76.7,0z M76.7,9.6c-2.6,0-3.8-2.2-3.8-4.4
			c0-2.2,1.1-4.4,3.8-4.4c2.6,0,3.8,2.2,3.8,4.4C80.5,7.4,79.3,9.6,76.7,9.6z M126.4,0.2v8.5h0l-5.8-8.5h-1.1v10h1V1.8h0l5.8,8.5
			h1.1v-10H126.4z"/>
	</g>
</g>
<g>
	<polygon class="st1" points="92,10.5 83.1,0.7 83.9,0 92,9 100.1,0 100.8,0.7 	"/>
</g>
<g>
	<polygon class="st0" points="108.3,10.5 99.5,0.7 100.2,0.1 108.3,9.1 116.5,0.1 117.2,0.7 	"/>
</g>
</svg>
