<?xml version="1.0" encoding="utf-8"?>
<!-- Generator: Adobe Illustrator 19.1.0, SVG Export Plug-In . SVG Version: 6.00 Build 0)  -->
<svg version="1.1" xmlns="http://www.w3.org/2000/svg" xmlns:xlink="http://www.w3.org/1999/xlink" x="0px" y="0px"
	 viewBox="0 0 40 40" style="enable-background:new 0 0 40 40;" xml:space="preserve">
<style type="text/css">
	.st0{fill-rule:evenodd;clip-rule:evenodd;fill:#FFFFFF;}
	.st1{display:none;}
	.st2{display:inline;}
	.st3{fill-rule:evenodd;clip-rule:evenodd;}
</style>
<g id="On">
	<g>
		<g>
			<path class="st0" d="M20,0C9,0,0,9,0,20c0,11,9,20,20,20s20-9,20-20C40,9,31,0,20,0z M20,38.3C9.9,38.3,1.7,30.1,1.7,20
				C1.7,9.9,9.9,1.7,20,1.7c10.1,0,18.3,8.2,18.3,18.3C38.3,30.1,30.1,38.3,20,38.3z M15.7,23.5h-2.4c-1.8,0-3.3,1.5-3.3,3.2
				c0,1.8,1.5,3.2,3.3,3.2c1.8,0,3.3-1.5,3.3-3.2V16.4l9.4-3.8v7.2h-2.4c-1.8,0-3.3,1.5-3.3,3.2c0,1.8,1.5,3.2,3.3,3.2
				c1.8,0,3.3-1.5,3.3-3.2V8l-11.3,4.5V23.5z M15.7,26.7c0,1.1-1,2.3-2.4,2.3c-1.3,0-2.4-1-2.4-2.3c0-1.3,1.1-2.3,2.4-2.3h2.4V26.7z
				 M26.1,23c0,1.1-1,2.3-2.4,2.3c-1.3,0-2.4-1-2.4-2.3c0-1.3,1.1-2.3,2.4-2.3h2.4V23z M16.6,13.1l9.4-3.8v2.2l-9.4,3.8V13.1z"/>
		</g>
	</g>
</g>
<g id="Off" class="st1">
	<g class="st2">
		<g>
			<path class="st3" d="M20,0C9,0,0,9,0,20c0,11,9,20,20,20s20-9,20-20C40,9,31,0,20,0z M20,1.7c10.1,0,18.3,8.2,18.3,18.3
				c0,4.1-1.4,7.9-3.7,11l-8-6.6C26.9,24,27,23.5,27,23V8l-11.3,4.5v2.8L6.4,7.7C9.8,4,14.6,1.7,20,1.7z M26.1,12.6v7.2h-2.4
				c-0.7,0-1.4,0.2-1.9,0.6l-4.9-4.1L26.1,12.6z M16.6,15.4v-2.2l9.4-3.8v2.2L16.6,15.4z M21.8,21.7l3.6,2.9c-0.4,0.4-1,0.7-1.6,0.7
				c-1.3,0-2.4-1-2.4-2.3C21.3,22.5,21.5,22.1,21.8,21.7z M22.5,21c0.3-0.2,0.7-0.3,1.2-0.3h2.4V23c0,0.3-0.1,0.5-0.2,0.8L22.5,21z
				 M20,38.3C9.9,38.3,1.7,30.1,1.7,20c0-4.4,1.5-8.4,4.1-11.5l9.9,8.2v6.9h-2.4c-1.8,0-3.3,1.5-3.3,3.2c0,1.8,1.5,3.2,3.3,3.2
				c1.8,0,3.3-1.5,3.3-3.2v-9.3l4.4,3.7c-0.4,0.5-0.7,1.2-0.7,1.9c0,1.8,1.5,3.2,3.3,3.2c0.9,0,1.8-0.4,2.4-1l7.9,6.6
				C30.6,35.8,25.6,38.3,20,38.3z M15.7,24.4v2.3c0,1.1-1,2.3-2.4,2.3c-1.3,0-2.4-1-2.4-2.3c0-1.3,1.1-2.3,2.4-2.3H15.7z"/>
		</g>
	</g>
</g>
</svg>
