<svg xmlns="http://www.w3.org/2000/svg" width="75" height="68" viewBox="0 0 75 68">
  <metadata><?xpacket begin="﻿" id="W5M0MpCehiHzreSzNTczkc9d"?>
<x:xmpmeta xmlns:x="adobe:ns:meta/" x:xmptk="Adobe XMP Core 5.6-c138 79.159824, 2016/09/14-01:09:01        ">
   <rdf:RDF xmlns:rdf="http://www.w3.org/1999/02/22-rdf-syntax-ns#">
      <rdf:Description rdf:about=""/>
   </rdf:RDF>
</x:xmpmeta>
                                                                                                    
                                                                                                    
                                                                                                    
                                                                                                    
                                                                                                    
                                                                                                    
                                                                                                    
                                                                                                    
                                                                                                    
                                                                                                    
                                                                                                    
                                                                                                    
                                                                                                    
                                                                                                    
                                                                                                    
                                                                                                    
                                                                                                    
                                                                                                    
                                                                                                    
                                                                                                    
                           
<?xpacket end="w"?></metadata>
<defs>
    <style>
      .cls-1 {
        fill: #fff;
        fill-rule: evenodd;
      }
    </style>
  </defs>
  <path class="cls-1" d="M44.948,67.721A34.671,34.671,0,0,1,25.92,64.757,34.293,34.293,0,0,1,11.463,52.079a0.356,0.356,0,0,1,.118-0.493,0.366,0.366,0,0,1,.144-0.049,0.362,0.362,0,0,1,.353.167,33.876,33.876,0,0,0,32.7,15.323c0.442-.056.89-0.122,1.33-0.195A33.482,33.482,0,0,0,67.978,53.373a32.781,32.781,0,0,0,5.835-24.818A33.408,33.408,0,0,0,36.529.93c-0.483.061-.973,0.134-1.454,0.216A34.045,34.045,0,0,0,12.224,15.874,33.081,33.081,0,0,0,7.154,39l0.508,3.681L13.4,33.941a0.352,0.352,0,0,1,.252-0.158,0.366,0.366,0,0,1,.252.06,0.35,0.35,0,0,1,.1.493l-6.177,9.39a0.361,0.361,0,0,1-.256.157l-0.019,0a0.377,0.377,0,0,1-.3-0.122L0.087,35.506A0.345,0.345,0,0,1,0,35.249,0.349,0.349,0,0,1,.124,35a0.357,0.357,0,0,1,.192-0.087,0.369,0.369,0,0,1,.322.12l6.087,7.041-0.436-4.4a33.717,33.717,0,0,1,5.327-22.188A34.809,34.809,0,0,1,34.965.439c0.361-.058.735-0.111,1.1-0.157A34.793,34.793,0,0,1,61.027,6.7,33.68,33.68,0,0,1,68.57,53.782,34.225,34.225,0,0,1,46.222,67.537C45.708,67.618,45.313,67.675,44.948,67.721Z"/>
</svg>
