<?xml version="1.0" encoding="utf-8"?>
<!-- Generator: Adobe Illustrator 19.1.0, SVG Export Plug-In . SVG Version: 6.00 Build 0)  -->
<svg version="1.1" id="Foreground" xmlns="http://www.w3.org/2000/svg" xmlns:xlink="http://www.w3.org/1999/xlink" x="0px" y="0px"
	 viewBox="0 0 698.9 76.9" style="enable-background:new 0 0 698.9 76.9;" xml:space="preserve">
<style type="text/css">
	.st0{fill:#0076C0;}
	.st1{fill-rule:evenodd;clip-rule:evenodd;fill:#0076C0;}
</style>
<g>
	<g>
		<path class="st0" d="M221.8,66.5V22.7h8.7l10.4,31c1,2.9,1.7,5,2.1,6.5c0.5-1.6,1.3-3.9,2.3-7l10.5-30.5h7.8v43.8H258V29.8
			l-12.7,36.6H240l-12.7-37.3v37.3H221.8z"/>
		<path class="st0" d="M268.1,66.5l16.8-43.8h6.2l17.9,43.8h-6.6l-5.1-13.3h-18.3l-4.8,13.3H268.1z M280.7,48.5h14.8L291,36.4
			c-1.4-3.7-2.4-6.7-3.1-9.1c-0.6,2.8-1.3,5.6-2.4,8.4L280.7,48.5z"/>
		<path class="st0" d="M313.5,66.5V22.7h5.8v21.7L341,22.7h7.9l-18.4,17.7l19.2,26H342l-15.6-22.2l-7.2,7v15.2H313.5z"/>
		<path class="st0" d="M354.6,66.5V22.7h31.7v5.2h-25.9v13.4h24.2v5.1h-24.2v14.9h26.9v5.2H354.6z"/>
		<path class="st0" d="M413.3,66.5V22.7h5.8v43.8H413.3z"/>
		<path class="st0" d="M440.4,66.5V27.9H426v-5.2h34.7v5.2h-14.5v38.6H440.4z"/>
		<path class="st0" d="M480.6,52.4l5.5-0.5c0.3,2.2,0.9,4,1.8,5.4c0.9,1.4,2.4,2.5,4.4,3.4c2,0.9,4.2,1.3,6.7,1.3
			c2.2,0,4.2-0.3,5.9-1c1.7-0.7,3-1.6,3.8-2.7c0.8-1.1,1.2-2.4,1.2-3.7c0-1.4-0.4-2.6-1.2-3.6c-0.8-1-2.1-1.9-3.9-2.6
			c-1.2-0.5-3.8-1.2-7.8-2.1c-4-1-6.8-1.9-8.5-2.7c-2.1-1.1-3.6-2.5-4.7-4.1c-1-1.6-1.5-3.4-1.5-5.5c0-2.2,0.6-4.3,1.9-6.2
			c1.3-1.9,3.1-3.4,5.5-4.4c2.4-1,5.1-1.5,8-1.5c3.2,0,6.1,0.5,8.6,1.6c2.5,1,4.4,2.6,5.7,4.6c1.3,2,2.1,4.3,2.2,6.9l-5.6,0.4
			c-0.3-2.8-1.3-4.9-3-6.3c-1.7-1.4-4.3-2.1-7.6-2.1c-3.5,0-6.1,0.6-7.7,1.9c-1.6,1.3-2.4,2.8-2.4,4.6c0,1.6,0.6,2.9,1.7,3.9
			c1.1,1,4,2.1,8.7,3.1c4.7,1.1,7.9,2,9.7,2.8c2.5,1.2,4.4,2.7,5.6,4.5c1.2,1.8,1.8,3.9,1.8,6.2c0,2.3-0.7,4.5-2,6.6
			c-1.3,2.1-3.3,3.7-5.7,4.8c-2.5,1.1-5.3,1.7-8.4,1.7c-4,0-7.3-0.6-10-1.7c-2.7-1.2-4.8-2.9-6.3-5.2
			C481.5,58,480.7,55.3,480.6,52.4z"/>
		<path class="st0" d="M524.3,66.5V22.7h5.8v43.8H524.3z"/>
		<path class="st0" d="M540.2,66.5V22.7h8.7l10.4,31c1,2.9,1.7,5,2.1,6.5c0.5-1.6,1.3-3.9,2.3-7l10.5-30.5h7.8v43.8h-5.6V29.8
			l-12.7,36.6h-5.2l-12.7-37.3v37.3H540.2z"/>
		<path class="st0" d="M591.3,66.5V22.7h16.5c2.9,0,5.1,0.1,6.7,0.4c2.2,0.4,4,1,5.4,2c1.5,1,2.6,2.4,3.5,4.2c0.9,1.8,1.3,3.8,1.3,6
			c0,3.7-1.2,6.9-3.6,9.5c-2.4,2.6-6.7,3.9-12.8,3.9h-11.2v17.8H591.3z M597.1,43.5h11.3c3.7,0,6.4-0.7,8-2.1
			c1.6-1.4,2.4-3.4,2.4-5.9c0-1.8-0.5-3.4-1.4-4.7c-0.9-1.3-2.1-2.2-3.7-2.6c-1-0.3-2.8-0.4-5.4-0.4h-11.2V43.5z"/>
		<path class="st0" d="M631.9,66.5V22.7h5.8v38.6h21.6v5.2H631.9z"/>
		<path class="st0" d="M666.3,66.5V22.7h31.7v5.2H672v13.4h24.2v5.1H672v14.9h26.9v5.2H666.3z"/>
	</g>
	<g>
		<path class="st0" d="M130.1,21c0.7,0,1.4,0.2,2.1,0.5c0.7,0.4,1.2,0.9,1.6,1.6c0.4,0.7,0.6,1.4,0.6,2.1c0,0.7-0.2,1.4-0.6,2.1
			c-0.4,0.7-0.9,1.2-1.6,1.6c-0.7,0.4-1.4,0.6-2.1,0.6c-0.7,0-1.4-0.2-2.1-0.6c-0.7-0.4-1.2-0.9-1.6-1.6c-0.4-0.7-0.6-1.4-0.6-2.1
			c0-0.7,0.2-1.4,0.6-2.1c0.4-0.7,0.9-1.2,1.6-1.6C128.7,21.2,129.4,21,130.1,21z M130.1,21.7c-0.6,0-1.2,0.2-1.7,0.5
			c-0.6,0.3-1,0.7-1.3,1.3c-0.3,0.6-0.5,1.2-0.5,1.8c0,0.6,0.2,1.2,0.5,1.8c0.3,0.6,0.8,1,1.3,1.3c0.6,0.3,1.2,0.5,1.8,0.5
			c0.6,0,1.2-0.2,1.8-0.5c0.6-0.3,1-0.8,1.3-1.3c0.3-0.6,0.5-1.1,0.5-1.8c0-0.6-0.2-1.2-0.5-1.8c-0.3-0.6-0.8-1-1.3-1.3
			C131.3,21.8,130.7,21.7,130.1,21.7z M128.3,27.6V23h1.6c0.5,0,0.9,0,1.2,0.1c0.2,0.1,0.4,0.2,0.6,0.4c0.1,0.2,0.2,0.4,0.2,0.7
			c0,0.3-0.1,0.6-0.4,0.9c-0.2,0.2-0.6,0.4-0.9,0.4c0.2,0.1,0.3,0.1,0.4,0.2c0.2,0.2,0.4,0.5,0.7,0.9l0.6,0.9h-0.9l-0.4-0.7
			c-0.3-0.6-0.6-0.9-0.8-1.1c-0.1-0.1-0.3-0.2-0.6-0.2H129v1.9H128.3z M129,25h0.9c0.4,0,0.7-0.1,0.9-0.2c0.2-0.1,0.2-0.3,0.2-0.5
			c0-0.1,0-0.3-0.1-0.4c-0.1-0.1-0.2-0.2-0.3-0.2c-0.1-0.1-0.4-0.1-0.7-0.1H129V25z"/>
	</g>
	<g>
		<path class="st1" d="M146.3,66.8l-50.9,0v-5.1l50.8,0c5-0.1,9.1-3.8,9.1-8.3c0-3.9-3.1-7.4-7.2-8.2c-1.2-0.3-2.5-0.5-4.1-0.8
			c0,0-3.8-0.4-13.9-1.6c-8.3-0.9-12.6-1.3-23.2-2.6c-1.6-0.2-2.3-0.3-4.2-0.7c-2.1-0.5-3.6-1.3-5.3-2.5c-1.9-1.4-2.2-3.3-2.2-5.7
			c0-4.6,3.6-8.5,8.3-8.5l18.9,0v5.1c-6.9,0-10.4,0-17.8,0c-1.9,0-3.5,1.5-3.5,3.4c0,1.4,0.8,2.5,2.2,3c1.3,0.4,6.4,1,8.3,1.3
			c1.4,0.2,18.5,2.2,18.5,2.2s16.8,2,18,2.2c7.5,0.9,12.7,6.4,12.7,13.4c0,7.4-6.2,13.4-13.9,13.4L146.3,66.8L146.3,66.8z"/>
		<polygon class="st1" points="86.7,0.5 86.7,17.3 81.6,17.3 81.6,0.5 		"/>
		<rect x="81.6" y="22.9" class="st1" width="5.1" height="44.3"/>
		<path class="st1" d="M39.8,67.3h-5.2V30.6c0-1-0.3-2.1-1.2-2.7c-0.7-0.5-1.5-0.6-2-0.5c-1,0-1.7,0-3.2,2.4L6.3,67.3l-6.3,0
			l5.3-9.2c2-2.4,16.6-28.3,16.6-28.3c2.8-4.5,4.8-7,8.1-7.1c1.2-0.1,1.8-0.1,3,0c1.7,0.2,2.6,0.7,3.7,1.5c0.9,0.6,1.6,1.5,2.1,2.5
			c0.6,1.1,1,2.3,1,3.6c0.1,11.8,0,16.1,0,26.4c3.8-6,15.6-26.9,15.6-26.9c2.8-4.5,4.8-7,8.1-7.1c1.2-0.1,1.8-0.1,2.9,0
			c1.7,0.2,2.6,0.7,3.8,1.5c0.9,0.6,1.6,1.5,2.1,2.5c0.7,1.1,1,2.3,1,3.6c0.1,14.4,0,22.5,0,36.8l-5.2,0l0-36.6c0-1-0.3-2.1-1.2-2.7
			c-0.7-0.5-1.4-0.6-2-0.5c-1,0-1.7,0-3.2,2.4L39.8,67.3z"/>
	</g>
	<g>
		<rect x="187.1" class="st0" width="2" height="76.9"/>
	</g>
</g>
</svg>
