<svg id="Flag_copy" data-name="Flag copy" xmlns="http://www.w3.org/2000/svg" xmlns:xlink="http://www.w3.org/1999/xlink" width="31" height="29" viewBox="0 0 31 29">
  <metadata><?xpacket begin="﻿" id="W5M0MpCehiHzreSzNTczkc9d"?>
<x:xmpmeta xmlns:x="adobe:ns:meta/" x:xmptk="Adobe XMP Core 5.6-c138 79.159824, 2016/09/14-01:09:01        ">
   <rdf:RDF xmlns:rdf="http://www.w3.org/1999/02/22-rdf-syntax-ns#">
      <rdf:Description rdf:about=""/>
   </rdf:RDF>
</x:xmpmeta>
                                                                                                    
                                                                                                    
                                                                                                    
                                                                                                    
                                                                                                    
                                                                                                    
                                                                                                    
                                                                                                    
                                                                                                    
                                                                                                    
                                                                                                    
                                                                                                    
                                                                                                    
                                                                                                    
                                                                                                    
                                                                                                    
                                                                                                    
                                                                                                    
                                                                                                    
                                                                                                    
                           
<?xpacket end="w"?></metadata>
<defs>
    <style>
      .cls-1 {
        fill: #23252f;
      }

      .cls-1, .cls-2, .cls-3 {
        fill-rule: evenodd;
      }

      .cls-2 {
        fill: #0075bf;
        filter: url(#filter);
      }

      .cls-3 {
        fill: #fff;
      }
    </style>
    <filter id="filter" x="0" y="0" width="19.875" height="29" filterUnits="userSpaceOnUse">
      <feFlood result="flood" flood-color="#05a5e6"/>
      <feComposite result="composite" operator="in" in2="SourceGraphic"/>
      <feBlend result="blend" in2="SourceGraphic"/>
    </filter>
  </defs>
  <path id="Shape_3_copy" data-name="Shape 3 copy" class="cls-1" d="M24.745,21.295c-5.483,0-12.087,1.152-14.722,2.568-2.535,1.362-.1,4.913,0,5.063a0.608,0.608,0,0,0,.384.072,3.113,3.113,0,0,0,.652-0.072c0.665-.15,16.313-3.7,18.849-5.063C32.544,22.446,30.228,21.295,24.745,21.295Z"/>
  <path class="cls-2" d="M9.943-.006A9.819,9.819,0,0,0,0,9.66c0,5.128,9.039,18.5,9.425,19.062a0.631,0.631,0,0,0,1.037,0c0.385-.567,9.425-13.934,9.425-19.062A9.819,9.819,0,0,0,9.943-.006Z"/>
  <path class="cls-3" d="M14.435,12.2V6.642a0.466,0.466,0,0,0-.189-0.407,0.557,0.557,0,0,0-.321-0.081,0.542,0.542,0,0,0-.508.369l-3.448,5.7H9.148V6.641a0.463,0.463,0,0,0-.189-0.407,0.554,0.554,0,0,0-.321-0.081,0.543,0.543,0,0,0-.508.369l-3.443,5.7H3.7l0.832-1.4c0.316-.364,2.611-4.3,2.611-4.3A1.768,1.768,0,0,1,8.423,5.434a2.385,2.385,0,0,1,.465,0,1.148,1.148,0,0,1,.59.23,1.1,1.1,0,0,1,.337.384,1.069,1.069,0,0,1,.153.553c0.012,1.793.007,2.445,0,4.008,0.6-.907,2.459-4.087,2.459-4.087a1.767,1.767,0,0,1,1.28-1.087,2.384,2.384,0,0,1,.464,0,1.154,1.154,0,0,1,.59.23,1.116,1.116,0,0,1,.337.384,1.075,1.075,0,0,1,.152.554c0.014,2.184,0,3.416,0,5.6H14.435Z"/>
</svg>
