<svg xmlns="http://www.w3.org/2000/svg" width="117.844" height="118.97" viewBox="0 0 117.844 118.97">
  <metadata><?xpacket begin="﻿" id="W5M0MpCehiHzreSzNTczkc9d"?>
<x:xmpmeta xmlns:x="adobe:ns:meta/" x:xmptk="Adobe XMP Core 5.6-c138 79.159824, 2016/09/14-01:09:01        ">
   <rdf:RDF xmlns:rdf="http://www.w3.org/1999/02/22-rdf-syntax-ns#">
      <rdf:Description rdf:about=""/>
   </rdf:RDF>
</x:xmpmeta>
                                                                                                    
                                                                                                    
                                                                                                    
                                                                                                    
                                                                                                    
                                                                                                    
                                                                                                    
                                                                                                    
                                                                                                    
                                                                                                    
                                                                                                    
                                                                                                    
                                                                                                    
                                                                                                    
                                                                                                    
                                                                                                    
                                                                                                    
                                                                                                    
                                                                                                    
                                                                                                    
                           
<?xpacket end="w"?></metadata>
<defs>
    <style>
      .cls-1 {
        fill: #05a5e6;
        fill-rule: evenodd;
      }
    </style>
  </defs>
  <path class="cls-1" d="M541.881,6091.98a1.387,1.387,0,0,1-1.337-1.04L522.735,6019l-0.116,9.08,0.541,62.52a1.382,1.382,0,0,1-1.38,1.38h-80.4a1.383,1.383,0,0,1-1.378-1.39V5989.54a1.383,1.383,0,0,1,1.378-1.39H460.1v-13.77a1.384,1.384,0,0,1,1.379-1.39H491.63a1.384,1.384,0,0,1,1.379,1.39v39.03h27.624l-5.219-20.32a1.392,1.392,0,0,1,.15-1.05,1.369,1.369,0,0,1,.844-0.64l14.6-3.79a1.425,1.425,0,0,1,.353-0.05,1.38,1.38,0,0,1,1.328,1.05l25.125,97.84a1.4,1.4,0,0,1-.991,1.7l-14.6,3.79A1.342,1.342,0,0,1,541.881,6091.98Zm-48.872-2.78H520.4v-73.01H493.009v73.01Zm-30.151,0h27.393V5975.77H462.858V6089.2Zm-20.1,0H460.1v-98.27H442.757v98.27Zm75.676-95.46,24.439,95.16,11.922-3.09-24.435-95.17Zm-16.753,88.14a1.39,1.39,0,0,1,0-2.78h10.051a1.39,1.39,0,0,1,0,2.78H501.68Zm-30.151,0a1.391,1.391,0,0,1-1.379-1.39v-20.21a1.384,1.384,0,0,1,1.379-1.39h10.05a1.383,1.383,0,0,1,1.379,1.39v20.21a1.39,1.39,0,0,1-1.379,1.39h-10.05Zm1.38-2.78H480.2v-17.43h-7.292v17.43Zm-21.48-2.28a1.383,1.383,0,0,1-1.379-1.39v-70.74a1.379,1.379,0,1,1,2.758,0v70.74A1.384,1.384,0,0,1,451.429,6076.82Zm55.276-5.05a1.384,1.384,0,0,1-1.379-1.39v-45.47a1.379,1.379,0,1,1,2.758,0v45.47A1.384,1.384,0,0,1,506.705,6071.77Zm-30.151-20.21a1.383,1.383,0,0,1-1.378-1.39v-65.69a1.379,1.379,0,1,1,2.758,0v65.69A1.384,1.384,0,0,1,476.554,6051.56Z" transform="translate(-440 -5973)"/>
</svg>
