<svg xmlns="http://www.w3.org/2000/svg" width="36" height="36" viewBox="0 0 36 36">
  <metadata><?xpacket begin="﻿" id="W5M0MpCehiHzreSzNTczkc9d"?>
<x:xmpmeta xmlns:x="adobe:ns:meta/" x:xmptk="Adobe XMP Core 5.6-c138 79.159824, 2016/09/14-01:09:01        ">
   <rdf:RDF xmlns:rdf="http://www.w3.org/1999/02/22-rdf-syntax-ns#">
      <rdf:Description rdf:about=""/>
   </rdf:RDF>
</x:xmpmeta>
                                                                                                    
                                                                                                    
                                                                                                    
                                                                                                    
                                                                                                    
                                                                                                    
                                                                                                    
                                                                                                    
                                                                                                    
                                                                                                    
                                                                                                    
                                                                                                    
                                                                                                    
                                                                                                    
                                                                                                    
                                                                                                    
                                                                                                    
                                                                                                    
                                                                                                    
                                                                                                    
                           
<?xpacket end="w"?></metadata>
<defs>
    <style>
      .cls-1 {
        fill: #fff;
        fill-rule: evenodd;
      }
    </style>
  </defs>
  <path class="cls-1" d="M59.893,58.623a2.952,2.952,0,1,1,0-5.895h2.222V46.2l-8.889,3.445v9.4a3.112,3.112,0,0,1-3.111,2.947,2.952,2.952,0,1,1,0-5.895h2.222V46.129L63,42v13.68A3.112,3.112,0,0,1,59.893,58.623Zm0-5.053a2.108,2.108,0,1,0,0,4.211,2.252,2.252,0,0,0,2.222-2.105V53.57H59.893Zm-7.556,3.79V56.938H50.115a2.108,2.108,0,1,0,0,4.211,2.252,2.252,0,0,0,2.222-2.105V57.359Zm0.889-10.665v2.037l8.889-3.445V43.25Zm2.8,24.285a18,18,0,1,1,18-18A18.021,18.021,0,0,1,56.025,70.98Zm0-34.524A16.524,16.524,0,1,0,72.55,52.98,16.543,16.543,0,0,0,56.025,36.456Z" transform="translate(-38.031 -34.969)"/>
</svg>
