<svg xmlns="http://www.w3.org/2000/svg" width="213" height="70" viewBox="0 0 213 70">
  <metadata><?xpacket begin="﻿" id="W5M0MpCehiHzreSzNTczkc9d"?>
<x:xmpmeta xmlns:x="adobe:ns:meta/" x:xmptk="Adobe XMP Core 5.6-c138 79.159824, 2016/09/14-01:09:01        ">
   <rdf:RDF xmlns:rdf="http://www.w3.org/1999/02/22-rdf-syntax-ns#">
      <rdf:Description rdf:about=""/>
   </rdf:RDF>
</x:xmpmeta>
                                                                                                    
                                                                                                    
                                                                                                    
                                                                                                    
                                                                                                    
                                                                                                    
                                                                                                    
                                                                                                    
                                                                                                    
                                                                                                    
                                                                                                    
                                                                                                    
                                                                                                    
                                                                                                    
                                                                                                    
                                                                                                    
                                                                                                    
                                                                                                    
                                                                                                    
                                                                                                    
                           
<?xpacket end="w"?></metadata>
<defs>
    <style>
      .cls-1 {
        fill: #05a5e6;
        fill-rule: evenodd;
      }
    </style>
  </defs>
  <path class="cls-1" d="M1093.83,6067.01l-4.67-16.75-1.56,10.27-16,.34-10.6-25.15-3.29,25.66-16.65.67-19.05-50.99,16.17-.31,5.4,0.71,4.64,13.79,2.17-14.46,15.94-.64,2.65-.44,7.4,18.27,1.7-16.02-4.24-13.45,24.12-.66,7.25,30.22,7.78-30.81,20.4,0.65,8.04,28.91,5.75-29.41,3.91-.4,20.17,0.31-2.99,12.34,0.74,0.18,1.78,13.69,5.71-14.66,3.37,0.43,13.44,0.62,2.38,11.27,3.37-12.38,4.7,0.79,14.42,0.31-15.11,45.63-12.82.65-4.18-1.54-3.27-16.93-6.18,18.45H1162.3l-2.1-11.8-6.21,21.16h-19.46l-11.31-36.82-8.98,37.97Zm-5.46-29.73,7.51,26.95,16.2-.26,10.79-45.65,13.67,44.47h15.41l8.9-30.3,3.72,20.94h10.09l7.85-23.44,2.6,0.81-0.52,1.84,3.86,19.97,2.21,0.81,10.42-.52,13.35-40.34-10.93-.24-2.46-.41-5.69,20.86-4.27-20.21-12.82-.71-8.79,22.58-2.92-22.38-1.57-.4,2.83-11.64-16.61-.27-1.74.18-7.57,38.72-10.59-38.05-16.21-.52-9.94,39.38-9.32-38.8-18.3.5,3.31,10.54-2.41,22.78-2.71-.22,0.03-.57-8.47-20.91-0.67.11-13.86.56-3.51,23.38-7.69-22.87-3.53-.48-12.11.26,17,45.51,12.39-.5,4.28-33.39,13.8,32.74,11.88-.25Zm145.02,24.17-11.81-.41-4.82-2,1.63-11.79,12.01-.76,4.59,2.68Zm-11-3.03,8.62,0.22,1.05-8.02-2.31-1.34-8.97.57-1.03,7.46Z" transform="translate(-1022 -5997)"/>
</svg>
