<?xml version="1.0" encoding="utf-8"?>
<!-- Generator: Adobe Illustrator 19.1.0, SVG Export Plug-In . SVG Version: 6.00 Build 0)  -->
<svg version="1.1" id="Layer_1" xmlns="http://www.w3.org/2000/svg" xmlns:xlink="http://www.w3.org/1999/xlink" x="0px" y="0px"
	 viewBox="-1271 1402.1 179.2 26.4" style="enable-background:new -1271 1402.1 179.2 26.4;" xml:space="preserve">
<style type="text/css">
	.st0{fill:#0B1F2C;}
	.st1{fill:#D1C492;}
</style>
<g>
	<g>
		<path class="st0" d="M-1222.7,1410.8h-0.6c-0.3-4.4-3.3-8-8.6-8c-6.2-0.1-10.1,4.8-10.1,12.4s3.8,12.5,9.8,12.5
			c5.2,0,8.5-3.5,9-8.1h0.6c-0.5,5.1-4,8.7-9.6,8.7c-6.4,0-10.4-5.1-10.4-13.1s4.1-13.1,10.6-13.1
			C-1226.2,1402.2-1223,1406.1-1222.7,1410.8z"/>
		<path class="st0" d="M-1198.7,1415.2c0,8-4.2,13.1-10.8,13.1s-10.8-5.1-10.8-13.1s4.2-13.1,10.8-13.1
			S-1198.7,1407.3-1198.7,1415.2z M-1219.8,1415.2c0,7.6,4,12.5,10.3,12.5s10.3-4.9,10.3-12.5s-4-12.5-10.3-12.5
			S-1219.8,1407.6-1219.8,1415.2z"/>
		<path class="st0" d="M-1179.3,1427.9l-7.9-11.8l-8.7-13l0,0v13.8v11.1h-0.6v-25.5h0.9l7.9,11.9l8.7,13l0,0v-13.8v-11.1h0.6v25.4
			H-1179.3z"/>
		<path class="st0" d="M-1156.4,1410.8h-0.6c-0.3-4.4-3.3-8-8.6-8c-6.2,0-10.1,4.9-10.1,12.5c0,7.6,3.8,12.5,9.8,12.5
			c5.2,0,8.5-3.5,9-8.1h0.6c-0.5,5.1-4,8.7-9.6,8.7c-6.4,0-10.4-5.1-10.4-13.1s4.1-13.1,10.6-13.1
			C-1159.9,1402.2-1156.7,1406.1-1156.4,1410.8z"/>
		<path class="st0" d="M-1153.3,1403.1v12.3h17.9v0.6h-17.9v11.4h14.4v0.6h-15v-25.5h14.5v0.6H-1153.3z"/>
		<path class="st0" d="M-1127.5,1402.5c5.1,0,7.6,2.9,7.6,6.7c0,3.8-2.5,6.7-7.6,6.7h-7.5v12h-0.6v-25.4H-1127.5z M-1135,1415.4h7.5
			c4.8,0,7-2.6,7-6.1s-2.2-6.1-7-6.1h-7.5V1415.4z"/>
		<path class="st0" d="M-1109.7,1403.1v24.8h-0.6v-24.8h-9.7v-0.6h20v0.6H-1109.7z"/>
		<path class="st0" d="M-1096.7,1402.7v3.2h-0.3v-3.2h-1.2v-0.3h2.8v0.3H-1096.7z"/>
		<path class="st0" d="M-1092.1,1405.9v-1.8c0-0.4,0-0.9,0-1.3l0,0c-0.2,0.5-0.3,0.9-0.5,1.3l-0.7,1.8h-0.4l-0.7-1.8
			c-0.2-0.5-0.3-0.9-0.5-1.3l0,0c0,0.4,0,0.9,0,1.3v1.8h-0.3v-3.5h0.5l0.7,1.8l0.5,1.3l0,0c0.2-0.4,0.3-0.9,0.5-1.3l0.7-1.8h0.5v3.4
			h-0.3V1405.9z"/>
		<g>
			<path class="st1" d="M-1255.7,1428.5c-4.4-7.4-10.9-18.9-15.3-26.4h4.1l11.1,19l11-19h4.2L-1255.7,1428.5z"/>
		</g>
	</g>
</g>
</svg>
