<svg xmlns="http://www.w3.org/2000/svg" width="139.68" height="80" viewBox="0 0 139.68 80">
  <metadata><?xpacket begin="﻿" id="W5M0MpCehiHzreSzNTczkc9d"?>
<x:xmpmeta xmlns:x="adobe:ns:meta/" x:xmptk="Adobe XMP Core 5.6-c138 79.159824, 2016/09/14-01:09:01        ">
   <rdf:RDF xmlns:rdf="http://www.w3.org/1999/02/22-rdf-syntax-ns#">
      <rdf:Description rdf:about=""/>
   </rdf:RDF>
</x:xmpmeta>
                                                                                                    
                                                                                                    
                                                                                                    
                                                                                                    
                                                                                                    
                                                                                                    
                                                                                                    
                                                                                                    
                                                                                                    
                                                                                                    
                                                                                                    
                                                                                                    
                                                                                                    
                                                                                                    
                                                                                                    
                                                                                                    
                                                                                                    
                                                                                                    
                                                                                                    
                                                                                                    
                           
<?xpacket end="w"?></metadata>
<defs>
    <style>
      .cls-1 {
        fill: #0ba7e7;
        fill-rule: evenodd;
      }
    </style>
  </defs>
  <path class="cls-1" d="M1446,6073.94c-37.98,0-68.13-37.14-69.4-38.72a2.06,2.06,0,0,1,0-2.57c1.27-1.58,31.42-38.72,69.4-38.72s68.13,37.14,69.39,38.72a2.06,2.06,0,0,1,0,2.57C1514.13,6036.8,1483.98,6073.94,1446,6073.94Zm0-75.87c-30.97,0-57.23,27.03-64.54,35.31l-0.49.56,0.49,0.56c7.31,8.28,33.57,35.3,64.54,35.3s57.22-27.02,64.53-35.3l0.49-.56-0.49-.56C1503.22,6025.1,1476.97,5998.07,1446,5998.07Zm0,61.28a25.416,25.416,0,1,1,25.65-25.41A25.565,25.565,0,0,1,1446,6059.35Zm0-46.69a21.276,21.276,0,1,0,21.47,21.28A21.41,21.41,0,0,0,1446,6012.66Zm0,35.02a13.832,13.832,0,0,1-13.88-13.74,2.1,2.1,0,0,1,4.19,0,9.69,9.69,0,1,0,9.69-9.61,2.065,2.065,0,1,1,0-4.13A13.741,13.741,0,1,1,1446,6047.68Z" transform="translate(-1376.16 -5993.94)"/>
</svg>
