<svg xmlns="http://www.w3.org/2000/svg" width="127" height="194" viewBox="0 0 127 194">
  <metadata><?xpacket begin="﻿" id="W5M0MpCehiHzreSzNTczkc9d"?>
<x:xmpmeta xmlns:x="adobe:ns:meta/" x:xmptk="Adobe XMP Core 5.6-c138 79.159824, 2016/09/14-01:09:01        ">
   <rdf:RDF xmlns:rdf="http://www.w3.org/1999/02/22-rdf-syntax-ns#">
      <rdf:Description rdf:about=""/>
   </rdf:RDF>
</x:xmpmeta>
                                                                                                    
                                                                                                    
                                                                                                    
                                                                                                    
                                                                                                    
                                                                                                    
                                                                                                    
                                                                                                    
                                                                                                    
                                                                                                    
                                                                                                    
                                                                                                    
                                                                                                    
                                                                                                    
                                                                                                    
                                                                                                    
                                                                                                    
                                                                                                    
                                                                                                    
                                                                                                    
                           
<?xpacket end="w"?></metadata>
<defs>
    <style>
      .cls-1 {
        fill: #0ba7e7;
        fill-rule: evenodd;
      }
    </style>
  </defs>
  <path class="cls-1" d="M791.09,6073.58c-0.807.46-1.809,1.04-2.11,1.14-0.824.1-6.07-.09-8.058-0.17-0.817-.03-1.288-0.05-1.517-0.05-0.7-.2-4.1-1.64-7.26-3.04l-0.414-1.64-0.61-.21c-1.283-.45-2.722-0.97-3.718-1.35,0.532-.44,1.308-1.02,2.324-1.75,0.223-.16.4-0.29,0.523-0.38,1.107-.82,1.4-2.95,1.47-3.82l0.1-1.2-1.206-.09a50.68,50.68,0,0,1-5.907-.66,0.7,0.7,0,0,1,.31-0.33c0.33-.22.867-0.53,1.435-0.85,2.252-1.3,3.356-1.99,3.752-2.78a6.441,6.441,0,0,0,.1-3.54l-0.16-.8-0.808-.14c-1.781-.3-3.861-0.74-4.946-1.06a5.572,5.572,0,0,1,1.374-1.3c0.992-.59,3.373-1.98,3.373-1.98l0.593-.34v-3.95l-1.087-.1a18.008,18.008,0,0,1-5.17-1.1,18.728,18.728,0,0,1,3.332-2.91,14.7,14.7,0,0,0,1.38-1.09,3.576,3.576,0,0,0,.7-3.35l-0.2-.68L768,6033.9a26.793,26.793,0,0,1-4.919-1.5,14.65,14.65,0,0,1,2.013-1.74l0.1-.07c0.2-.16.4-0.31,0.6-0.46,0.31-.23.611-0.45,0.883-0.66,0.044-.04.087-0.07,0.13-0.11l1.908-1.44-0.7.08a2.425,2.425,0,0,0,.148-2.46l-0.267-.44-0.507-.11c-2.587-.55-5.2-1.5-5.6-2,0.09-.44,1.579-1.35,2.215-1.74l0.381-.23c1.618-1.01,2.44-1.62,2.474-1.65l0.546-.4-0.365-3.27-0.8-.21c-2.132-.55-4.692-1.28-5.137-1.5a2.276,2.276,0,0,1,.574-0.56c1.518-1.13,3.845-2.49,3.868-2.5l0.422-.25,1.013-3.69-1.02-.38c-0.045-.02-4.287-1.6-5.565-2.1a2.044,2.044,0,0,1,.946-0.9c1.728-.95,3.876-1.93,3.9-1.94l0.836-.38-0.665-3.96-0.659-.24c-0.655-.23-3.369-1.2-5.036-1.72a8.408,8.408,0,0,1,1.661-1.29c1.909-1.14,2.7-1.54,2.708-1.54l0.661-.33v-4l-0.856-.25a23.007,23.007,0,0,1-4.743-1.9,16.727,16.727,0,0,1,1.975-1.32,9.236,9.236,0,0,0,1.68-1.14c1.092-1.09,1.147-3.2,1.147-3.62v-0.83l-0.79-.28a21.963,21.963,0,0,1-4.367-2.02,5.222,5.222,0,0,1,2.006-1.8,5.766,5.766,0,0,0,2.349-4.07l0.076-.83-0.756-.36a13.617,13.617,0,0,1-3.468-2.11,2.146,2.146,0,0,1,.17-1.51,16.227,16.227,0,0,0,2.31-1.48l0.391-.29,0.59-3.82-3.563-2.29a4.792,4.792,0,0,1,.074-1.59,14.212,14.212,0,0,1,1.729-1.01l0.66-.33,0-4.52-0.763-.3a6.028,6.028,0,0,1-1.6-.89,22.568,22.568,0,0,0,.172-2.65l1.335-1.33,0.591-4.45-1.06-.24a2.516,2.516,0,0,1-1.093-.51c-0.037-.17-0.09-0.4-0.15-0.66a16.9,16.9,0,0,1-.438-2.41c0.394-.21.874-0.42,1.065-0.5l0.844-.33-0.5-4.47-0.073-.57-0.491-.31a1.384,1.384,0,0,1-.423-0.41,1.944,1.944,0,0,1,.357-0.83l0.837-1.63v-0.28a3.349,3.349,0,0,0-.7-1.79,3.433,3.433,0,0,0,.685-2.56l-0.085-.51-0.944-.63,0.145-.65,1.856-1.84-2.075-1.18,0.205-1.94c6.7-.06,42.763-0.34,49.638-0.21a4.431,4.431,0,0,1,.245,1.79,8.081,8.081,0,0,1-1.016,1.35l-0.756.75,1.017,1.27-1.424,3.31,1.232,0.4a3.936,3.936,0,0,1,.442.2,5.069,5.069,0,0,1-.511.61l-0.609.61,0.385,0.76a10.8,10.8,0,0,1,1.066,2.58,5.329,5.329,0,0,1-.5.66,2.881,2.881,0,0,0-.9,1.78c0,0.62.182,3.16,0.2,3.45l0.028,0.38,0.246,0.3a3.246,3.246,0,0,1,.719,1.61h2.39a5.254,5.254,0,0,0-1.023-2.81c-0.068-.96-0.15-2.23-0.168-2.76,0.082-.12.235-0.31,0.344-0.44a3.486,3.486,0,0,0,1.046-2.11,7.408,7.408,0,0,0-.961-2.98,2.6,2.6,0,0,0,.7-2.35,2.4,2.4,0,0,0-.984-1.18l1.032-2.39-0.632-.79a10.529,10.529,0,0,0,.674-0.99c0.81-1.34.055-3.67-.308-4.61l-0.28-.72-0.781-.04c-4.365-.19-49.721.18-51.65,0.2l-1.067.01-0.591,5.59,0.713,0.41-0.136.13-0.651,2.92,1.3,0.86a0.981,0.981,0,0,1-.31.45c-1.094.87-.278,2.12,0.029,2.6,0.07,0.1.168,0.26,0.239,0.38l-0.349.7a4.106,4.106,0,0,0-.765,2.2,2.752,2.752,0,0,0,1.06,2.03l0.245,2.19a8.6,8.6,0,0,0-.972.53c-1.1.73-.814,2.36-0.255,4.75,0.059,0.25.111,0.47,0.144,0.64a2.938,2.938,0,0,0,1.849,1.96l-0.215,1.61-1.458,1.45v0.49a21.444,21.444,0,0,1-.176,2.94c-0.287,1.42,1.213,2.44,2.367,2.99v1.48a13.977,13.977,0,0,0-1.514.95c-1.192.89-1.052,3.08-.862,4.3l0.081,0.53,3.187,2.05-0.206,1.33a12.129,12.129,0,0,1-1.462.93,2.369,2.369,0,0,0-1.356,1.55,4.068,4.068,0,0,0,.111,3.36c0.562,0.93,2.363,1.97,3.641,2.62a2.753,2.753,0,0,1-1.058,1.5c-2.335,1.45-3.417,2.98-3.128,4.41,0.094,0.47.307,1.53,5.087,3.35a2.461,2.461,0,0,1-.379,1.13,11.07,11.07,0,0,1-1.219.79c-1.794,1.07-3.826,2.28-3.252,3.99,0.366,1.09,2.287,2.19,5.715,3.28v0.79c-0.461.25-1.18,0.66-2.209,1.27-0.147.09-3.612,2.18-3.276,4.11a1.549,1.549,0,0,0,1.267,1.25c0.59,0.11,3.238,1.02,5.146,1.7l0.134,0.79c-0.815.39-2.095,1.01-3.236,1.64a3.716,3.716,0,0,0-2.2,3.26,2.109,2.109,0,0,0,1.343,1.86c0.718,0.28,3.314,1.26,4.78,1.81l-0.184.67c-0.772.46-2.436,1.47-3.674,2.4a3.078,3.078,0,0,0-1.565,2.73,2.316,2.316,0,0,0,1.349,1.86,46.036,46.036,0,0,0,4.815,1.46l0.031,0.28c-0.386.26-.973,0.65-1.758,1.14l-0.369.23c-1.621.99-4.332,2.66-3.023,4.93,0.8,1.39,3.957,2.38,6.052,2.9a3.6,3.6,0,0,1-.57.53c-0.263.2-.553,0.42-0.853,0.64-0.2.15-.407,0.31-0.613,0.47l0.614,0.8v0.01l-0.619-.81c-1.709,1.29-4.048,3.06-3,4.8,0.529,0.88,2.511,1.73,5.895,2.53a0.622,0.622,0,0,1-.139.37c-0.156.16-.647,0.52-1.122,0.88-2.373,1.76-4.2,3.24-4.4,4.77a1.773,1.773,0,0,0,.412,1.37c0.977,1.21,3.97,1.78,5.952,2.02v0.43c-0.777.46-2.12,1.24-2.806,1.65a6.846,6.846,0,0,0-2.784,3.33,1.643,1.643,0,0,0,.214,1.32c0.244,0.36.643,0.96,6.112,1.95a4.216,4.216,0,0,1,0,1.19,20.6,20.6,0,0,1-2.819,1.81c-0.6.34-1.172,0.67-1.566,0.93a2.781,2.781,0,0,0-1.374,2.48,2.346,2.346,0,0,0,1.3,1.95,24.892,24.892,0,0,0,5.527.82,2.835,2.835,0,0,1-.332.93l-0.487.35c-3.262,2.34-4.055,3.14-4.038,4.07a1.334,1.334,0,0,0,.6,1.09,40.8,40.8,0,0,0,4.838,1.9l0.383,1.52,0.53,0.24c7.8,3.47,8.378,3.47,8.655,3.47,0.12,0,.809.03,1.538,0.06,3.554,0.13,5.747.19,7.066,0.19a8.5,8.5,0,0,0,1.644-.09,14.145,14.145,0,0,0,2.745-1.39c1.117-.64,2.383-1.37,3.435-1.85l-0.989-2.16C793.574,6072.15,792.254,6072.91,791.09,6073.58Zm88.712-98.41a20.71,20.71,0,0,0,1.883-.9c1.327-.79,1-2.55.742-3.95a6.743,6.743,0,0,1-.178-1.43c0.271-1.62-1.667-2.93-3.541-4.19-0.5-.33-0.974-0.65-1.254-0.88a2.053,2.053,0,0,1-.15-1.61,23.129,23.129,0,0,0,4.776-3.35l0.282-.25,0.077-.38c1.382-6.64-.136-7.39-0.6-7.62-0.547-.43-1.152-3.13-1.165-3.91a23.712,23.712,0,0,0-.2-4.09,3.194,3.194,0,0,1,.693-0.69l0.747-.53-0.323-.86c-0.019-.05-0.365-0.96-0.715-1.77a2.087,2.087,0,0,0,1.328-1.2,2.16,2.16,0,0,0-.714-2.14l0.889-.75-0.137-.69a7.7,7.7,0,0,0-.992-2.32,2.716,2.716,0,0,0,1.088-1.07,2.384,2.384,0,0,0-.582-2.59c-0.06-.08-0.137-0.18-0.2-0.27,0.037-.03.074-0.06,0.106-0.09a2.46,2.46,0,0,0,.94-1.17,2.774,2.774,0,0,0-.629-2.33c-0.033-.06-0.07-0.12-0.108-0.18a1.827,1.827,0,0,0,.94-1.18,2.839,2.839,0,0,0-.813-2.37l0.383,0.03,0.086-1.2c0.008-.11.2-2.83,0.2-3.85,0-1.08-1.386-3.71-2.548-5.74l-0.29-.5-0.579-.09c-1.412-.2-38.059.12-45.392,0.19l-0.7.01-3.069,5.63v5.3l0.53,0.35a6.4,6.4,0,0,1,.537.41,4.422,4.422,0,0,1-.558.29l-1.37.61,2.07,2.74-0.86.86a1.565,1.565,0,0,0-.472,1.14,2.707,2.707,0,0,0,1.061,1.82,3.662,3.662,0,0,0-.461.3,1.52,1.52,0,0,0-.629,1.31,3.056,3.056,0,0,0,1.363,2.03c-0.072.05-.15,0.11-0.234,0.16a1.528,1.528,0,0,0-.8,1.42,2.647,2.647,0,0,0,1.527,1.94,2.24,2.24,0,0,1-.355.58,1.632,1.632,0,0,0-.329,1.82l2.218-.88a0.751,0.751,0,0,1-.2.74,6.5,6.5,0,0,0,1.3-2.5l0.281-.97-0.93-.43a5.75,5.75,0,0,1-.616-0.33,4.647,4.647,0,0,0,.985-1.23l0.488-.97-0.93-.57c-0.315-.2-0.647-0.44-0.914-0.65a1.674,1.674,0,0,0,1.023-2.09,3.376,3.376,0,0,0-1-1.28c-0.054-.05-0.121-0.11-0.189-0.17l1.829-1.82-1.6-2.13a1.846,1.846,0,0,0,.957-2.12,3.986,3.986,0,0,0-1.333-1.62v-3.45l2.109-3.88c16.246-.14,39.74-0.31,43.78-0.22a23.271,23.271,0,0,1,1.912,4.02c0,0.58-.073,1.79-0.128,2.66a1.766,1.766,0,0,0-1.188.93c-0.543,1.17.52,2.23,0.87,2.57a4.461,4.461,0,0,1,.434.49,1.921,1.921,0,0,0-.983,1.64,3.269,3.269,0,0,0,.661,1.67c0.069,0.11.163,0.27,0.239,0.4h0a2.387,2.387,0,0,0-1.1,1.9,2.89,2.89,0,0,0,.78,1.76c0.044,0.06.1,0.12,0.144,0.19-0.032.02-.064,0.04-0.092,0.06a2.22,2.22,0,0,0-1.21,1.4,2.045,2.045,0,0,0,.38,1.61,6.136,6.136,0,0,1,.608,1.13l-1.921,1.64,1.192,0.89a5.343,5.343,0,0,1,.493.41,1.92,1.92,0,0,0-1.126,1.05,1.578,1.578,0,0,0,.082,1.29c0.195,0.38.449,1,.645,1.49a2.64,2.64,0,0,0-.935,2.42,20.469,20.469,0,0,1,.164,3.68c0,0.04.35,4.64,2.242,5.89a15.1,15.1,0,0,1-.349,4.78,18.719,18.719,0,0,1-4.345,2.89l-0.5.21-0.172.51c-0.108.33-1,3.19,0.767,4.66,0.372,0.31.893,0.66,1.445,1.03a12.718,12.718,0,0,1,2.5,1.98,7.771,7.771,0,0,0,.206,2.1,8.514,8.514,0,0,1,.2,1.58c-0.333.17-.905,0.43-1.461,0.68-2.735,1.23-3.977,1.85-4.392,2.68a4.23,4.23,0,0,0,.106,3.23,5.913,5.913,0,0,0,3.753,3.37,2.059,2.059,0,0,1,1.3,1.09,5.206,5.206,0,0,1-.405,3.67c-0.248.57-2.07,1.75-2.945,2.31a11.554,11.554,0,0,0-1.781,1.28,3.584,3.584,0,0,0-.9,3.06,2.344,2.344,0,0,0,1.212,1.81c0.086,0.04.2,0.1,0.339,0.16,2.232,1.05,3.445,1.98,3.6,2.78,0.454,2.25.335,3.88-.319,4.34-1.323.94-4.83,2.88-4.865,2.9l-0.483.27-0.109.54c-0.218,1.09-.107,3.13,1.7,3.9,1.635,0.7,4.5,2.92,4.272,4.26-0.045.27-.078,0.52-0.11,0.76-0.2,1.58-.33,2.54-5.793,5.1l-0.463.21-0.162.49c-0.4,1.18-.143,3.84,3.657,5.43,2.516,1.05,2.407,2.96,2.107,4.66l-0.022.13c-0.323.62-2.6,2.49-6.246,4.8a2.223,2.223,0,0,0-1.087,1.63c-0.19,1.54,1.257,3.06,2.788,4.66a13.935,13.935,0,0,1,1.875,2.22c1.349,2.46.99,3.85-1.324,5.13a13.805,13.805,0,0,1-2.453,1.2l-2.027.22,1.225,1.66c0.608,0.83,1.034,1.46,1.307,1.91-0.835.22-1.993,0.59-2.228,1.76a33.481,33.481,0,0,0-.223,4.99c0,0.91-.281,3.35-0.389,4.21l-0.067.54,1.226,1.35c-2.125,1.41-6.06,4.09-6.921,5.29-0.651.91-3.3,1.88-6.2,1.88-1.887,0-7.907-1.84-12.883-3.95l-0.935,2.19c4.812,2.03,11.3,4.14,13.818,4.14,3.02,0,6.787-.99,8.142-2.88,0.541-.75,4.21-3.35,7.445-5.44l1.176-.75-2.367-2.62c0.116-.98.342-3.01,0.342-3.96,0-.92,0-3.24.138-4.29,0.182-.07.476-0.15,0.67-0.2,0.637-.17,2.327-0.62,1.945-2.14a7.066,7.066,0,0,0-1.187-2.19c0.422-.21.945-0.48,1.6-0.84,3.482-1.93,4.243-4.74,2.261-8.35a14.87,14.87,0,0,0-2.239-2.71,11.56,11.56,0,0,1-2.134-2.66c6.967-4.42,7.211-5.87,7.291-6.35l0.031-.17c0.234-1.33.947-5.38-3.534-7.26-1.79-.75-2.226-1.6-2.315-2.09,5.744-2.77,6.211-4.28,6.518-6.64,0.029-.22.057-0.44,0.1-0.68,0.567-3.38-4.422-6.3-5.687-6.83a0.836,0.836,0,0,1-.32-0.76c1.083-.61,3.422-1.95,4.527-2.73,1.528-1.09,1.956-3.36,1.274-6.75-0.476-2.37-3.6-3.83-4.929-4.46-0.069-.03-0.131-0.06-0.186-0.08a1.361,1.361,0,0,1,.207-1.12,13.486,13.486,0,0,1,1.39-.97c1.875-1.2,3.348-2.22,3.843-3.37,0.423-.98,1.309-3.49.4-5.56a4.432,4.432,0,0,0-2.69-2.37c-2.5-.88-2.6-2.79-2.531-3.23A23.73,23.73,0,0,1,879.8,5975.17Zm-40.06,118.19a16.006,16.006,0,0,0,3.805-.84l2.32-.74-2.007-1.37c-2.326-1.59-5.031-3.75-5.34-4.39a6.341,6.341,0,0,1-.015-3.5,24.923,24.923,0,0,0,2.953-1.14l1.514-.71-3.446-3.56c0.129-.38.253-0.73,0.321-0.9,0.051-.05.12-0.12,0.2-0.21a10.02,10.02,0,0,0,1.472-1.86,10.184,10.184,0,0,0,.815-4.19,12.739,12.739,0,0,0-.289-2.3,13.193,13.193,0,0,1-.233-1.54,2.287,2.287,0,0,1,.011-0.56,0.162,0.162,0,0,1,.045-0.04,30.287,30.287,0,0,1,3.571-.93l0.2-.05a1.818,1.818,0,0,0,1.271-.94c0.508-.97.027-2.14-0.582-3.62a6.142,6.142,0,0,0-2.224-2.72,11.842,11.842,0,0,1-.961-0.81,2,2,0,0,1-.427-1.54c1.1-.24,3.075-0.67,4.351-1.01,2.555-.66,2.841-2.04,2.783-3.3-0.062-1.35-1.726-2.29-4.437-3.7-0.452-.23-0.882-0.45-1.246-0.66a1.6,1.6,0,0,1-.817-1.82,15.991,15.991,0,0,1,1.7-.41c0.515-.1,1.1-0.22,1.67-0.37,1.105-.28,4.039-1.02,4.039-3.5,0-1.65-2.147-2.59-4.04-3.42-0.424-.19-0.825-0.37-1.044-0.49a3.537,3.537,0,0,1-1.018-2.51,0.294,0.294,0,0,1,.012-0.04,10.292,10.292,0,0,1,1.6-.35c0.314-.06.667-0.12,1.063-0.2,2.324-.44,3.742-0.84,3.85-2.68,0.078-1.3-.908-2.71-2.574-3.66a12.137,12.137,0,0,1-3.53-2.77,2.723,2.723,0,0,1,.862-0.3,25.7,25.7,0,0,0,4.522-1.42c1.7-.81,1.193-3.08,1-3.94-0.016-.07-0.029-0.12-0.033-0.14-0.083-.67-0.551-1.08-2.276-2.04-0.912-.5-2.026-1.06-2.757-1.38a3.244,3.244,0,0,1-.092-1.88c0.331-.11.812-0.26,1.2-0.38a16.621,16.621,0,0,0,2.915-1.06c1.767-1.03.674-3.3,0.149-4.39-0.091-.19-0.194-0.41-0.227-0.5a4.364,4.364,0,0,0-2.063-1.89,7.811,7.811,0,0,1-1.208-.84,4.086,4.086,0,0,1-.016-1.69,15.1,15.1,0,0,0,1.375-.68c0.242-.15.886-0.55,0.948-2.59l0.038-1.23h-1.191l-0.015-.48a1.642,1.642,0,0,0,.638-0.25,1.315,1.315,0,0,0,.582-1.09,4.149,4.149,0,0,0-1.525-2.59,2.457,2.457,0,0,1-.058-0.44l0.679-.04-0.13-2.93,1-.08-0.069-5.71-0.863-.13-0.019-1.23,0.223-.18-0.033-1.15,0.919-.21v-4.41l-1.27-.04,0-.31h1l0.068-6.34-1.94-.03v-0.78l1.957,0.01,0.069-6.26-1.961-.03-0.026-.86,1.858-.01-0.068-6.34-1.766-.01-0.02-.61h2.1v-6.44l-1.9-.01,0.016-.45,1.7,0.03,0.061-7.66-51.087-.32H798l-3.123,1.92-0.252,16.93,0.376,0.36a3.023,3.023,0,0,1,1.033,1.79,2.876,2.876,0,0,1-.713,1.2l-0.532.3v6.36l0.485,0.36a3.6,3.6,0,0,1,1.4,1.92,2.992,2.992,0,0,1-1.3,1.77l-0.5.36v5.37l0.008,0.93,0.9,0.23c0.191,0.04,1.866.51,1.693,1.89a2.462,2.462,0,0,1-1.823,2.04l-0.969.21,0.238,6.14,1.008,0.12c0.023,0,2.32.32,2.32,1.55s-1.906,2.67-2.828,3.17l-0.656.36,0.238,5.06,0.952,0.15c1.592,0.27,3.255,1.04,3.237,1.52-0.074,1.91-.834,2.39-1.4,2.59a6.045,6.045,0,0,0-2.713,1.63c-0.163.24-.347,0.51-0.437,3.12l-0.021.61,0.491,0.37a13.98,13.98,0,0,0,4.751,2.05,1.436,1.436,0,0,1,.238.92,10.86,10.86,0,0,1-2.7,2.51c-3.125.85-2.817,3.1-2.649,3.78,0.569,2.26,3.616,2.78,3.961,2.83l0.18,0.02a3.41,3.41,0,0,1,1.674.38c0.073,0.29.161,0.53,0.238,0.75a3.107,3.107,0,0,1,.156.51,2.023,2.023,0,0,1-.572.44c-4.686,2.84-4.426,4.13-4.316,4.69,0.019,0.09.031,0.19,0.044,0.3a3.611,3.611,0,0,0,2.591,3.31,11.334,11.334,0,0,0,2.947.67,3.641,3.641,0,0,1-.084.53l-0.027.18a1.827,1.827,0,0,1-1.046,1.47,3.224,3.224,0,0,0-1.693,4.14l0.024,0.07a7.966,7.966,0,0,0,2.787,3.32,1.32,1.32,0,0,1,.723,1.85,5.186,5.186,0,0,1-2.214,2.1,7.43,7.43,0,0,0-2.605,1.34l-0.548.43,0.381,2.25,0.906,0.09c0.039,0.01,3.863.42,4.8,2.8,0.536,1.36-.056,2.26-2.045,3.09l-0.1.04a33.718,33.718,0,0,0-3.819,2.59l-1.009.76,0.824,0.96a3.323,3.323,0,0,0,2.245,1.19c1.089,0,4.239.75,4.558,1.65,0.5,1.41.178,2.27-1.194,3.15-1.847,1.19-4.712,2.83-4.741,2.85l-0.9.52,1.131,2.81h0.809c2.54,0,5.218.47,5.673,0.98,0.088,0.28.181,0.53,0.267,0.77,0.388,1.04.388,1.04-.807,1.84-2.326,1.54-5.344,3.65-5.375,3.67l-0.637.45,0.348,1.72,1.982,1.65,0.418,0.01a30.615,30.615,0,0,1,4.823.4c0.011,0.01.022,0.03,0.033,0.04,0.38,0.43.571,0.65,0.108,1.63-0.669,1.42-3.708,4.91-4.822,6.14l-1.076,1.19,3.92,1.85,0.381-.07a3.716,3.716,0,0,1,2.4.16c0.058,0.11,1.407,2.7.229,4.86L805.73,6103h36.22l3.6-1.34-2.372-1.24c-2.209-1.14-4.641-3.06-4.6-3.99a5.1,5.1,0,0,1,1.137-3.07h0.025Zm5.28-123.38-3.707-.06,0.01-.72,3.7,0.02v0.76Zm0.062-7.06-3.613-.06v-0.73l3.589-.01Zm0-7.19-3.526-.02v-0.58h3.507Zm0.179-7.06-3.937-.02-0.008-.52,3.962,0.06Zm-7.022,142.82a7.094,7.094,0,0,0-2.048,4.83c-0.076,1.61,1.342,3.14,2.851,4.3h-29.62a8.724,8.724,0,0,0-.852-5.35c-0.917-1.73-3.464-1.6-4.557-1.45l-0.35-.17a34.513,34.513,0,0,0,4.152-5.53c1.125-2.38.05-3.61-.467-4.2-0.045-.05-0.089-0.1-0.128-0.15-0.29-.36-0.769-0.96-6.061-1.1l-0.231-.19c1.078-.75,2.859-1.98,4.35-2.97,2.558-1.69,2.313-3.04,1.725-4.63-0.079-.22-0.164-0.45-0.244-0.7-0.558-1.78-3.48-2.37-6-2.54,0.953-.57,2.117-1.27,3.055-1.87,2.3-1.48,3.022-3.48,2.149-5.94-0.76-2.15-4-2.88-5.721-3.12a14.7,14.7,0,0,1,1.609-1.05l0.088-.04c4.3-1.8,3.941-4.62,3.34-6.14a6.925,6.925,0,0,0-4.479-3.77c1.384-.42,3.537-2.39,3.865-3.86a3.584,3.584,0,0,0-1.73-4.35,5.6,5.6,0,0,1-1.879-2.19c-0.248-.85.183-1.09,0.323-1.15a4.17,4.17,0,0,0,2.534-3.42c0.553-2.56-.833-3.16-1.12-3.26l-0.216-.07-0.221.01a7.86,7.86,0,0,1-2.815-.55,1.322,1.322,0,0,1-1.06-1.39c-0.009-.07-0.019-0.14-0.03-0.22a12.8,12.8,0,0,1,3.174-2.42c2.1-1.28,1.839-2.62,1.427-3.78-0.07-.2-0.136-0.38-0.183-0.57-0.488-1.94-3.123-2.13-3.879-2.15-0.662-.12-1.8-0.54-1.926-1.05-0.075-.3-0.152-0.6.959-0.91,1.26-.34,2.98-2.19,3.893-3.26,1.427-1.68-.153-3.95-0.338-4.2l-0.265-.36-0.44-.1a13.721,13.721,0,0,1-3.822-1.43c0.026-.48.061-0.96,0.1-1.24a6.362,6.362,0,0,1,1.432-.67c1.3-.46,2.873-1.65,2.992-4.74,0.09-2.32-2.674-3.35-4.279-3.75l-0.081-1.74c1.172-.76,3.42-2.54,3.42-4.86,0-2.18-1.838-3.27-3.409-3.71l-0.09-2.35a4.651,4.651,0,0,0,2.705-3.7,4.007,4.007,0,0,0-2.579-4.18v-3.36a4.648,4.648,0,0,0,1.8-3.44,5.214,5.214,0,0,0-1.881-3.3v-4a5.619,5.619,0,0,0,1.109-1.92c0.557-1.57-.586-3.15-1.258-3.9l0.218-14.63,1.427-.88,48.348,0.3L847,5945.84l-8.111-.13,0.078,5.3,8.195,0.05v1.69h-8v5.32l7.709,0.04,0.018,1.62-7.813.04v5.43l7.941,0.13-0.016,1.53-8.038-.05-0.076,5.45,8.044,0.13-0.017,1.61h-1.011l-0.025,4.99,1.281,0.05v0.21l-0.972.22,0.054,1.93-0.209.16,0.068,4.41,0.856,0.13,0.018,1.48-1.068.09,0.128,2.89-0.437.03-0.108.99a4.677,4.677,0,0,0,.543,3.17l-0.289-.03,0.162,5.32h0.062c-0.156.07-.312,0.14-0.46,0.2l-0.551.25-0.133.58c-0.208.93-.582,3.2,0.448,4.35a7.859,7.859,0,0,0,1.752,1.29,8.907,8.907,0,0,1,1.1.75c0.074,0.19.175,0.4,0.291,0.64a7.966,7.966,0,0,1,.572,1.43c-0.514.22-1.46,0.51-2.18,0.73-1.85.56-2.474,0.75-2.694,1.52-0.012.04-1.149,4.11,1.314,5.18a30.5,30.5,0,0,1,3.723,1.98,3.824,3.824,0,0,1,.141,1.27,24.054,24.054,0,0,1-3.85,1.17,3.536,3.536,0,0,0-2.5,1.48,2.217,2.217,0,0,0-.146,1.86c0.58,1.73,3.952,3.73,4.622,4.12a2.381,2.381,0,0,1,1.382,1.46,9.5,9.5,0,0,1-1.912.49c-0.388.07-.733,0.13-1.041,0.19-1.927.35-3.09,0.55-3.5,2.13a5.565,5.565,0,0,0,2.163,5.19c0.317,0.17.747,0.36,1.245,0.58a12.236,12.236,0,0,1,2.589,1.38c-0.2.49-1.445,0.87-2.212,1.07-0.52.13-1.05,0.24-1.563,0.34-0.481.1-.943,0.2-1.367,0.31a1.181,1.181,0,0,0-1.09-.24l-0.149.04a1.177,1.177,0,0,0-.874,1l0,0.03a1.127,1.127,0,0,0,.058.49,1.731,1.731,0,0,0-.117.45l-0.013.1a4.115,4.115,0,0,0,1.991,4.46c0.382,0.21.833,0.44,1.307,0.69a17.744,17.744,0,0,1,3.164,1.9c0,0.37-.116.46-1.007,0.69-1.758.46-5.022,1.15-5.054,1.16l-0.718.15-0.189.7c-0.08.3-.729,2.95,1,4.58,0.411,0.38.787,0.68,1.12,0.94a3.809,3.809,0,0,1,1.491,1.75c0.181,0.44.43,1.04,0.548,1.44-3.489.81-4.019,1.05-4.374,1.4l-0.064.07a2.678,2.678,0,0,0-.8,2.48,15.689,15.689,0,0,0,.269,1.83,10.931,10.931,0,0,1,.249,1.86,8.079,8.079,0,0,1-.522,3.05,8.3,8.3,0,0,1-1.122,1.38,4.5,4.5,0,0,0-.459.53,9.214,9.214,0,0,0-.813,2.15l-0.216.67,2.075,2.15c-0.386.14-.79,0.29-1.147,0.38a2.17,2.17,0,0,0-1.329,1.12,8.26,8.26,0,0,0-.158,5.39c0.356,1.07,2.32,2.73,4.185,4.12a3.561,3.561,0,0,1-.653.1A1.96,1.96,0,0,0,838.24,6091.49Z" transform="translate(-756 -5909)"/>
</svg>
