<svg xmlns="http://www.w3.org/2000/svg" viewBox="0 0 698.93 76.93"><defs><style>.cls-1{fill:#fff;}</style></defs><title>Asset 1</title><g id="Layer_2" data-name="Layer 2"><g id="Foreground"><path class="cls-1" d="M221.77,66.48V22.7h8.72l10.36,31q1.43,4.33,2.09,6.48.75-2.39,2.33-7L255.76,22.7h7.8V66.48H258V29.83L245.25,66.48H240L227.36,29.21V66.48Z"/><path class="cls-1" d="M268.1,66.48,284.91,22.7h6.24l17.92,43.78h-6.6l-5.11-13.26H279.06l-4.81,13.26Zm12.63-18h14.84L291,36.37q-2.09-5.52-3.11-9.08a55.77,55.77,0,0,1-2.36,8.36Z"/><path class="cls-1" d="M313.47,66.48V22.7h5.79V44.41L341,22.7h7.86L330.5,40.43l19.18,26H342L326.43,44.32l-7.17,7V66.48Z"/><path class="cls-1" d="M354.63,66.48V22.7h31.66v5.17H360.42V41.27h24.22v5.14H360.42v14.9h26.88v5.17Z"/><path class="cls-1" d="M413.29,66.48V22.7h5.79V66.48Z"/><path class="cls-1" d="M440.44,66.48V27.86H426V22.7h34.71v5.17H446.24V66.48Z"/><path class="cls-1" d="M480.59,52.41l5.47-.48a12.06,12.06,0,0,0,1.81,5.39,9.86,9.86,0,0,0,4.41,3.4A16.68,16.68,0,0,0,499,62a16.11,16.11,0,0,0,5.85-1,8.13,8.13,0,0,0,3.78-2.7,6.27,6.27,0,0,0,1.24-3.75,5.7,5.7,0,0,0-1.19-3.6,8.86,8.86,0,0,0-3.94-2.58,77.44,77.44,0,0,0-7.8-2.13,39.87,39.87,0,0,1-8.45-2.73,11.85,11.85,0,0,1-4.67-4.08A10,10,0,0,1,482.26,34a11.12,11.12,0,0,1,1.88-6.2,11.65,11.65,0,0,1,5.5-4.38,20.86,20.86,0,0,1,8-1.49,21.94,21.94,0,0,1,8.59,1.57A12.38,12.38,0,0,1,512,28.13a13.26,13.26,0,0,1,2.15,6.9l-5.56.42a9,9,0,0,0-3-6.27q-2.58-2.12-7.63-2.12-5.26,0-7.66,1.93a5.78,5.78,0,0,0-2.4,4.64,5,5,0,0,0,1.7,3.88q1.67,1.52,8.74,3.12A57.88,57.88,0,0,1,508,43.42a13.28,13.28,0,0,1,5.65,4.46,10.88,10.88,0,0,1,1.82,6.23,11.91,11.91,0,0,1-2,6.59,13.18,13.18,0,0,1-5.75,4.81,20,20,0,0,1-8.44,1.72,25.2,25.2,0,0,1-10-1.73,13.94,13.94,0,0,1-6.3-5.21A14.76,14.76,0,0,1,480.59,52.41Z"/><path class="cls-1" d="M524.34,66.48V22.7h5.79V66.48Z"/><path class="cls-1" d="M540.17,66.48V22.7h8.72l10.36,31q1.43,4.33,2.09,6.48.75-2.39,2.33-7L574.17,22.7H582V66.48h-5.59V29.83L563.65,66.48h-5.23L545.76,29.21V66.48Z"/><path class="cls-1" d="M591.31,66.48V22.7h16.52a39.94,39.94,0,0,1,6.66.42,13.2,13.2,0,0,1,5.41,2,10.74,10.74,0,0,1,3.51,4.23,13.41,13.41,0,0,1,1.33,6,13.45,13.45,0,0,1-3.55,9.45q-3.55,3.87-12.84,3.87H597.11v17.8Zm5.79-23h11.32q5.62,0,8-2.09a7.45,7.45,0,0,0,2.36-5.88,7.92,7.92,0,0,0-1.39-4.7,6.49,6.49,0,0,0-3.66-2.58,24.76,24.76,0,0,0-5.41-.39h-11.2Z"/><path class="cls-1" d="M631.87,66.48V22.7h5.79V61.31h21.57v5.17Z"/><path class="cls-1" d="M666.25,66.48V22.7h31.66v5.17H672V41.27h24.22v5.14H672v14.9h26.88v5.17Z"/><path class="cls-1" d="M130.13,21a4.35,4.35,0,0,1,2.09.55,3.9,3.9,0,0,1,1.59,1.57,4.27,4.27,0,0,1,0,4.24,4,4,0,0,1-1.57,1.57,4.27,4.27,0,0,1-4.23,0,4,4,0,0,1-1.57-1.57,4.25,4.25,0,0,1,0-4.24A3.92,3.92,0,0,1,128,21.52,4.35,4.35,0,0,1,130.13,21Zm0,.7a3.62,3.62,0,0,0-1.74.46,3.29,3.29,0,0,0-1.33,1.31A3.53,3.53,0,0,0,127,27a3.34,3.34,0,0,0,1.31,1.31,3.54,3.54,0,0,0,3.52,0A3.32,3.32,0,0,0,133.2,27a3.54,3.54,0,0,0,0-3.54,3.27,3.27,0,0,0-1.33-1.31A3.62,3.62,0,0,0,130.13,21.67Zm-1.86,5.89V23h1.57a3.85,3.85,0,0,1,1.16.13,1.12,1.12,0,0,1,.57.44,1.17,1.17,0,0,1,.21.67,1.22,1.22,0,0,1-.36.87,1.41,1.41,0,0,1-.95.42,1.25,1.25,0,0,1,.39.24,5.26,5.26,0,0,1,.67.91l.56.89h-.9l-.41-.72a3.69,3.69,0,0,0-.77-1.06,1,1,0,0,0-.59-.16H129v1.94ZM129,25h.89a1.45,1.45,0,0,0,.88-.19.66.66,0,0,0,.12-.87.68.68,0,0,0-.31-.24,2.31,2.31,0,0,0-.74-.08H129Z"/><path class="cls-1" d="M146.32,66.79H95.45V61.71h50.75c5-.06,9.09-3.75,9.09-8.29a8.66,8.66,0,0,0-7.2-8.18c-1.25-.3-2.48-.52-4.11-.8,0,0-3.77-.37-13.92-1.61-8.34-.88-12.59-1.28-23.19-2.63a31.16,31.16,0,0,1-4.18-.72,13.65,13.65,0,0,1-5.35-2.54c-1.92-1.42-2.2-3.3-2.2-5.68a8.4,8.4,0,0,1,8.26-8.52h18.92v5.13c-6.94,0-10.37,0-17.79,0A3.48,3.48,0,0,0,101,31.3a3.1,3.1,0,0,0,2.21,3c1.27.44,6.43,1,8.32,1.31,1.42.23,18.53,2.17,18.53,2.17s16.75,2,18,2.23c7.49.89,12.7,6.37,12.7,13.36a13.65,13.65,0,0,1-13.89,13.4l-.54,0Z"/><rect class="cls-1" x="81.61" y="0.47" width="5.13" height="16.88"/><rect class="cls-1" x="81.59" y="22.88" width="5.15" height="44.25"/><path class="cls-1" d="M39.79,67.26H34.58V30.56a3.1,3.1,0,0,0-1.2-2.67,3.42,3.42,0,0,0-2-.54c-1,0-1.66,0-3.23,2.42L6.26,67.26H0l5.28-9.2c2-2.39,16.58-28.28,16.58-28.28,2.77-4.47,4.83-7,8.12-7.15a14.25,14.25,0,0,1,3,0,7.65,7.65,0,0,1,5.88,4,7.21,7.21,0,0,1,1,3.64c.07,11.79,0,16.08,0,26.36,3.84-6,15.61-26.89,15.61-26.89,2.76-4.47,4.84-7,8.12-7.15a14.88,14.88,0,0,1,2.94,0,7.69,7.69,0,0,1,5.88,4,7.26,7.26,0,0,1,1,3.65c.09,14.36,0,22.47,0,36.83H68.13V30.56a3.1,3.1,0,0,0-1.21-2.67,3.45,3.45,0,0,0-2-.54c-1,0-1.66,0-3.23,2.42Z"/><line class="cls-1" x1="188.1" y1="76.93" x2="188.1"/></g></g></svg>