<?xml version="1.0" encoding="utf-8"?>
<!-- Generator: Adobe Illustrator 19.1.0, SVG Export Plug-In . SVG Version: 6.00 Build 0)  -->
<svg version="1.1" id="Layer_1" xmlns="http://www.w3.org/2000/svg" xmlns:xlink="http://www.w3.org/1999/xlink" x="0px" y="0px"
	 viewBox="-277 400.9 40 40" style="enable-background:new -277 400.9 40 40;" xml:space="preserve">
<style type="text/css">
	.st0{display:none;}
	.st1{display:inline;}
	.st2{fill:#FFFFFF;}
	.st3{fill:#00B1D9;}
</style>
<g id="On" class="st0">
	<g class="st1">
		<g>
			<path class="st2" d="M-257,400.9c-11,0-20,9-20,20s9,20,20,20s20-9,20-20S-246,400.9-257,400.9z M-257,439.2
				c-10.1,0-18.3-8.2-18.3-18.3c0-10.1,8.2-18.3,18.3-18.3s18.3,8.2,18.3,18.3C-238.7,431-246.9,439.2-257,439.2z M-261.3,424.4
				h-2.4c-1.8,0-3.3,1.5-3.3,3.2c0,1.8,1.5,3.2,3.3,3.2c1.8,0,3.3-1.5,3.3-3.2v-10.3l9.4-3.8v7.2h-2.4c-1.8,0-3.3,1.5-3.3,3.2
				c0,1.8,1.5,3.2,3.3,3.2c1.8,0,3.3-1.5,3.3-3.2v-15l-11.3,4.5v11H-261.3z M-261.3,427.6c0,1.1-1,2.3-2.4,2.3c-1.3,0-2.4-1-2.4-2.3
				c0-1.3,1.1-2.3,2.4-2.3h2.4C-261.3,425.3-261.3,427.6-261.3,427.6z M-250.9,423.9c0,1.1-1,2.3-2.4,2.3c-1.3,0-2.4-1-2.4-2.3
				c0-1.3,1.1-2.3,2.4-2.3h2.4V423.9z M-260.4,414l9.4-3.8v2.2l-9.4,3.8V414z"/>
		</g>
	</g>
</g>
<g id="Off" class="st0">
	<g class="st1">
		<g>
			<path d="M-257,400.9c-11,0-20,9-20,20s9,20,20,20s20-9,20-20S-246,400.9-257,400.9z M-257,402.6c10.1,0,18.3,8.2,18.3,18.3
				c0,4.1-1.4,7.9-3.7,11l-8-6.6c0.3-0.4,0.4-0.9,0.4-1.4v-15l-11.3,4.5v2.8l-9.3-7.6C-267.2,404.9-262.4,402.6-257,402.6z
				 M-250.9,413.5v7.2h-2.4c-0.7,0-1.4,0.2-1.9,0.6l-4.9-4.1L-250.9,413.5z M-260.4,416.3v-2.2l9.4-3.8v2.2L-260.4,416.3z
				 M-255.2,422.6l3.6,2.9c-0.4,0.4-1,0.7-1.6,0.7c-1.3,0-2.4-1-2.4-2.3C-255.7,423.4-255.5,423-255.2,422.6z M-254.5,421.9
				c0.3-0.2,0.7-0.3,1.2-0.3h2.4v2.3c0,0.3-0.1,0.5-0.2,0.8L-254.5,421.9z M-257,439.2c-10.1,0-18.3-8.2-18.3-18.3
				c0-4.4,1.5-8.4,4.1-11.5l9.9,8.2v6.9h-2.4c-1.8,0-3.3,1.5-3.3,3.2c0,1.8,1.5,3.2,3.3,3.2c1.8,0,3.3-1.5,3.3-3.2v-9.3l4.4,3.7
				c-0.4,0.5-0.7,1.2-0.7,1.9c0,1.8,1.5,3.2,3.3,3.2c0.9,0,1.8-0.4,2.4-1l7.9,6.6C-246.4,436.7-251.4,439.2-257,439.2z
				 M-261.3,425.3v2.3c0,1.1-1,2.3-2.4,2.3c-1.3,0-2.4-1-2.4-2.3s1.1-2.3,2.4-2.3H-261.3z"/>
		</g>
	</g>
</g>
<g id="Off_White">
	<g>
		<g>
			<path class="st2" d="M-257,400.9c-11,0-20,9-20,20s9,20,20,20s20-9,20-20S-246,400.9-257,400.9z M-257,439.2
				c-10.1,0-18.3-8.2-18.3-18.3c0-10.1,8.2-18.3,18.3-18.3s18.3,8.2,18.3,18.3C-238.7,431-246.9,439.2-257,439.2z M-261.3,424.4
				h-2.4c-1.8,0-3.3,1.5-3.3,3.2c0,1.8,1.5,3.2,3.3,3.2c1.8,0,3.3-1.5,3.3-3.2v-10.3l9.4-3.8v7.2h-2.4c-1.8,0-3.3,1.5-3.3,3.2
				c0,1.8,1.5,3.2,3.3,3.2c1.8,0,3.3-1.5,3.3-3.2v-15l-11.3,4.5v11H-261.3z M-261.3,427.6c0,1.1-1,2.3-2.4,2.3c-1.3,0-2.4-1-2.4-2.3
				c0-1.3,1.1-2.3,2.4-2.3h2.4C-261.3,425.3-261.3,427.6-261.3,427.6z M-250.9,423.9c0,1.1-1,2.3-2.4,2.3c-1.3,0-2.4-1-2.4-2.3
				c0-1.3,1.1-2.3,2.4-2.3h2.4V423.9z M-260.4,414l9.4-3.8v2.2l-9.4,3.8V414z"/>
		</g>
	</g>
	<path class="st3" d="M-271.2,409.3l0.3-0.4l0.3-0.4l28.2,23.4l-0.3,0.4l-0.3,0.5L-271.2,409.3z"/>
</g>
</svg>
