<svg xmlns="http://www.w3.org/2000/svg" xmlns:xlink="http://www.w3.org/1999/xlink" preserveAspectRatio="xMidYMid" width="237" height="217" viewBox="0 0 237 217">
  <defs>
    <style>
      .cls-1 {
        fill: #abb5bf;
        fill-rule: evenodd;
      }
    </style>
  </defs>
  <path d="M149.898,117.203 C149.714,117.203 149.538,117.156 149.370,117.063 C149.202,116.970 149.071,116.839 148.977,116.672 C148.883,116.504 148.836,116.329 148.836,116.146 C148.836,115.962 148.884,115.785 148.979,115.616 C149.074,115.446 149.206,115.316 149.376,115.225 C149.546,115.135 149.719,115.089 149.898,115.089 C150.076,115.089 150.249,115.135 150.420,115.225 C150.589,115.316 150.721,115.446 150.815,115.616 C150.910,115.785 150.957,115.962 150.957,116.146 C150.957,116.329 150.911,116.504 150.818,116.672 C150.725,116.839 150.594,116.970 150.425,117.063 C150.257,117.156 150.081,117.203 149.898,117.203 ZM150.782,116.146 C150.782,115.993 150.742,115.846 150.663,115.704 C150.584,115.562 150.474,115.454 150.332,115.379 C150.190,115.301 150.046,115.264 149.898,115.264 C149.749,115.264 149.603,115.301 149.463,115.379 C149.321,115.454 149.211,115.562 149.132,115.704 C149.052,115.846 149.012,115.993 149.012,116.146 C149.012,116.299 149.051,116.445 149.130,116.583 C149.207,116.724 149.317,116.833 149.457,116.911 C149.598,116.989 149.745,117.027 149.898,117.027 C150.050,117.027 150.197,116.989 150.338,116.911 C150.478,116.833 150.588,116.724 150.665,116.583 C150.743,116.445 150.782,116.299 150.782,116.146 ZM150.065,116.551 C149.985,116.410 149.921,116.322 149.872,116.287 C149.838,116.261 149.789,116.248 149.725,116.248 L149.617,116.248 L149.617,116.731 L149.433,116.731 L149.433,115.592 L149.825,115.592 C149.959,115.592 150.056,115.603 150.116,115.625 C150.175,115.647 150.223,115.682 150.259,115.734 C150.295,115.787 150.312,115.843 150.312,115.901 C150.312,115.985 150.283,116.056 150.223,116.119 C150.164,116.179 150.084,116.215 149.986,116.222 C150.026,116.239 150.059,116.260 150.083,116.283 C150.129,116.327 150.185,116.402 150.252,116.508 L150.391,116.731 L150.166,116.731 L150.065,116.551 ZM150.059,116.043 C150.098,116.011 150.117,115.969 150.117,115.917 C150.117,115.883 150.107,115.854 150.089,115.826 C150.070,115.800 150.044,115.779 150.011,115.768 C149.978,115.754 149.916,115.747 149.826,115.747 L149.617,115.747 L149.617,116.090 L149.840,116.090 C149.947,116.090 150.020,116.075 150.059,116.043 ZM153.325,120.311 C153.062,120.245 152.799,120.199 152.457,120.142 C152.457,120.142 151.660,120.061 149.513,119.799 C147.750,119.612 146.850,119.531 144.607,119.246 C144.268,119.204 144.117,119.187 143.722,119.094 C143.281,118.992 142.956,118.828 142.591,118.561 C142.183,118.261 142.127,117.863 142.127,117.364 C142.127,116.394 142.889,115.568 143.873,115.568 L147.876,115.568 L147.876,116.649 C146.409,116.649 145.684,116.643 144.114,116.649 C143.707,116.649 143.366,116.968 143.366,117.368 C143.366,117.675 143.540,117.904 143.831,118.006 C144.103,118.102 145.194,118.221 145.594,118.284 C145.892,118.333 149.511,118.741 149.511,118.741 C149.511,118.741 153.054,119.172 153.314,119.211 C154.899,119.398 156.000,120.552 156.000,122.024 C156.000,123.583 154.686,124.849 153.064,124.849 L152.950,124.846 L152.949,124.852 L142.190,124.854 L142.190,123.780 L152.925,123.780 C153.982,123.767 154.848,122.990 154.848,122.034 C154.848,121.200 154.193,120.483 153.325,120.311 ZM140.347,110.874 L140.347,114.429 L139.262,114.429 L139.262,110.874 L140.347,110.874 ZM140.347,124.922 L139.257,124.922 L139.257,115.598 L140.347,115.598 L140.347,124.922 ZM129.687,107.360 C129.787,107.403 129.891,107.470 130.001,107.560 C130.111,107.646 130.215,107.762 130.314,107.911 C130.534,108.193 130.647,108.590 130.654,109.098 C130.654,109.386 130.617,109.642 130.543,109.867 C130.466,110.101 130.369,110.295 130.254,110.451 C130.001,110.804 129.681,111.045 129.295,111.170 C128.892,111.290 128.371,111.350 127.732,111.350 L124.915,111.350 L124.915,103.510 L128.015,103.510 C128.274,103.510 128.469,103.517 128.599,103.531 C129.187,103.586 129.643,103.846 129.964,104.314 C130.063,104.448 130.144,104.603 130.211,104.781 C130.267,104.973 130.294,105.190 130.294,105.432 C130.294,106.048 130.073,106.546 129.629,106.926 C129.510,107.012 129.342,107.097 129.129,107.180 C129.143,107.180 129.157,107.184 129.173,107.191 C129.383,107.234 129.554,107.291 129.687,107.360 ZM129.309,106.436 C129.494,106.109 129.584,105.797 129.577,105.500 C129.570,105.104 129.470,104.798 129.276,104.584 C129.140,104.428 128.965,104.313 128.755,104.235 C128.657,104.192 128.550,104.163 128.435,104.149 C128.311,104.142 128.132,104.138 127.896,104.138 L125.644,104.138 L125.644,106.947 L127.645,106.947 C128.473,106.969 129.027,106.798 129.309,106.436 ZM128.899,107.652 C128.611,107.594 128.243,107.565 127.795,107.565 L125.644,107.565 L125.644,110.678 L127.816,110.678 C128.429,110.685 128.866,110.636 129.127,110.532 C129.409,110.407 129.615,110.225 129.746,109.977 C129.859,109.742 129.915,109.459 129.915,109.129 C129.915,108.975 129.897,108.807 129.862,108.630 C129.827,108.460 129.740,108.289 129.603,108.119 C129.416,107.884 129.182,107.727 128.899,107.652 ZM137.306,116.395 C137.443,116.634 137.509,116.884 137.511,117.160 C137.530,120.187 137.509,121.896 137.509,124.922 L136.411,124.922 L136.411,117.216 C136.411,116.998 136.342,116.775 136.158,116.653 C136.015,116.556 135.850,116.534 135.727,116.539 C135.524,116.548 135.375,116.539 135.045,117.049 L130.416,124.948 L129.314,124.950 L129.314,117.216 C129.314,116.996 129.245,116.774 129.060,116.653 C128.917,116.556 128.753,116.534 128.631,116.539 C128.426,116.548 128.278,116.539 127.946,117.049 L123.325,124.948 L121.999,124.947 L123.117,123.009 C123.541,122.506 126.622,117.049 126.622,117.049 C127.207,116.107 127.645,115.579 128.341,115.544 C128.593,115.530 128.712,115.514 128.965,115.544 C129.332,115.587 129.505,115.689 129.756,115.860 C129.952,115.997 130.085,116.177 130.208,116.395 C130.345,116.634 130.411,116.884 130.413,117.160 C130.429,119.646 130.423,120.550 130.419,122.714 C131.229,121.459 133.720,117.049 133.720,117.049 C134.304,116.107 134.742,115.580 135.438,115.544 C135.692,115.530 135.810,115.514 136.062,115.544 C136.430,115.587 136.601,115.690 136.852,115.860 C137.049,115.997 137.182,116.177 137.306,116.395 ZM132.177,105.662 L133.483,109.128 C133.639,109.537 133.743,109.844 133.794,110.050 C133.856,110.253 133.904,110.474 133.941,110.718 C133.962,110.555 133.992,110.396 134.027,110.239 C134.060,110.085 134.131,109.865 134.239,109.583 L135.736,105.662 L136.470,105.662 L133.973,112.006 L133.930,112.114 C133.857,112.298 133.801,112.432 133.761,112.515 C133.718,112.605 133.670,112.694 133.619,112.782 C133.565,112.885 133.487,112.982 133.386,113.069 C133.287,113.151 133.164,113.222 133.016,113.280 C132.867,113.340 132.682,113.372 132.461,113.372 C132.320,113.372 132.163,113.350 131.993,113.304 L132.004,112.678 C132.018,112.678 132.048,112.682 132.090,112.689 C132.225,112.710 132.332,112.722 132.412,112.722 C132.636,112.722 132.820,112.644 132.961,112.488 C133.102,112.340 133.236,112.085 133.363,111.723 L133.559,111.185 L131.389,105.662 L132.177,105.662 ZM40.999,83.000 L47.747,83.000 L65.940,114.005 L83.960,83.063 L90.865,83.063 L65.929,126.006 C58.804,113.899 48.109,95.223 40.999,83.000 ZM116.029,106.001 C117.409,107.808 118.099,110.066 118.099,112.778 C118.099,116.445 116.757,119.555 114.074,122.106 C111.390,124.656 107.998,125.930 103.896,125.930 C100.196,125.930 97.125,124.833 94.682,122.635 C92.238,120.440 90.844,117.593 90.498,114.097 L95.674,113.409 C96.268,116.331 97.279,118.438 98.707,119.728 C100.134,121.017 101.873,121.661 103.925,121.661 C106.359,121.661 108.414,120.821 110.091,119.140 C111.768,117.459 112.608,115.377 112.608,112.894 C112.608,110.526 111.831,108.571 110.279,107.034 C108.726,105.496 106.751,104.727 104.357,104.727 C103.379,104.727 102.162,104.918 100.705,105.300 L101.280,100.773 C101.625,100.811 101.903,100.831 102.114,100.831 C104.318,100.831 106.302,100.257 108.065,99.111 C109.828,97.966 110.710,96.197 110.710,93.810 C110.710,91.919 110.068,90.352 108.784,89.110 C107.500,87.868 105.842,87.249 103.810,87.249 C101.797,87.249 100.120,87.879 98.779,89.140 C97.437,90.399 96.574,92.291 96.192,94.813 L91.016,93.896 C91.649,90.438 93.086,87.760 95.329,85.858 C97.571,83.957 100.360,83.007 103.695,83.007 C105.995,83.007 108.113,83.500 110.049,84.483 C111.985,85.466 113.465,86.810 114.490,88.509 C115.515,90.209 116.029,92.015 116.029,93.924 C116.029,95.739 115.540,97.392 114.562,98.881 C113.585,100.371 112.138,101.556 110.221,102.435 C112.712,103.008 114.648,104.196 116.029,106.001 ZM236.999,107.987 L-118.157,269.012 L-119.009,269.012 L236.019,108.044 L236.001,108.044 L-25.999,-11.013 L-25.147,-11.013 L236.726,107.987 L236.999,107.987 Z" class="cls-1"/>
</svg>
