<?xml version="1.0" encoding="utf-8"?>
<!-- Generator: Adobe Illustrator 19.1.0, SVG Export Plug-In . SVG Version: 6.00 Build 0)  -->
<svg version="1.1" id="Layer_1" xmlns="http://www.w3.org/2000/svg" xmlns:xlink="http://www.w3.org/1999/xlink" x="0px" y="0px"
	 viewBox="0 0 292.1 32.6" style="enable-background:new 0 0 292.1 32.6;" xml:space="preserve">
<style type="text/css">
	.st0{fill:#0B1F2C;}
	.st1{fill:#D1C492;}
	.st2{fill:#174254;}
</style>
<g>
	<g>
		<path class="st0" d="M202.8,0.4c5.2,0,7.6,2.5,7.6,6.2c0,3.4-2,5.6-5.3,6.1v0c3.5,0.4,5.9,2.7,5.9,6.3c0,4.1-2.7,6.7-7.5,6.7h-7.8
			V0.4H202.8z M196.4,12.5h6.5c5,0,7-2.7,7-5.9c0-3.4-2.2-5.6-7-5.6h-6.5V12.5z M196.4,25.3h7.2c4.4,0,6.9-2.4,6.9-6.2
			c0-3.4-2.2-6-7.6-6h-6.5V25.3z"/>
		<path class="st0" d="M219.6,26.1c-2.2,5.4-3.6,6.5-6.1,6.5c-0.6,0-1.1-0.1-1.5-0.2v-0.6c0.4,0.2,0.8,0.2,1.5,0.2
			c2.2,0,3.5-1,5.6-6.1l-7.2-18.2h0.6l6.8,17.3h0l7.1-17.3h0.6L219.6,26.1z"/>
	</g>
	<g>
		<path class="st0" d="M48.3,8.7h-0.6c-0.3-4.4-3.3-8-8.6-8C32.9,0.6,29,5.5,29,13.1s3.8,12.5,9.8,12.5c5.2,0,8.5-3.5,9-8.1h0.6
			c-0.5,5.1-4,8.7-9.6,8.7c-6.4,0-10.4-5.1-10.4-13.1c0-8,4.1-13.1,10.6-13.1C44.8,0.1,48,4,48.3,8.7z"/>
		<path class="st0" d="M72.3,13.1c0,8-4.2,13.1-10.8,13.1s-10.8-5.1-10.8-13.1c0-8,4.2-13.1,10.8-13.1S72.3,5.2,72.3,13.1z
			 M51.2,13.1c0,7.6,4,12.5,10.3,12.5c6.3,0,10.3-4.9,10.3-12.5s-4-12.5-10.3-12.5C55.2,0.6,51.2,5.5,51.2,13.1z"/>
		<path class="st0" d="M91.7,25.8L83.8,14L75.1,1h0v13.8v11.1h-0.6V0.4h0.9l7.9,11.9l8.7,13h0V11.5V0.4h0.6v25.4H91.7z"/>
		<path class="st0" d="M114.6,8.7h-0.6c-0.3-4.4-3.3-8-8.6-8c-6.2,0-10.1,4.9-10.1,12.5s3.8,12.5,9.8,12.5c5.2,0,8.5-3.5,9-8.1h0.6
			c-0.5,5.1-4,8.7-9.6,8.7c-6.4,0-10.4-5.1-10.4-13.1c0-8,4.1-13.1,10.6-13.1C111.1,0.1,114.3,4,114.6,8.7z"/>
		<path class="st0" d="M117.7,1v12.3h17.9v0.6h-17.9v11.4h14.4v0.6h-15V0.4h14.5V1H117.7z"/>
		<path class="st0" d="M143.5,0.4c5.1,0,7.6,2.9,7.6,6.7s-2.5,6.7-7.6,6.7H136v12h-0.6V0.4H143.5z M136,13.3h7.5c4.8,0,7-2.6,7-6.1
			s-2.2-6.1-7-6.1H136V13.3z"/>
		<path class="st0" d="M161.3,1v24.8h-0.6V1h-9.7V0.4H171V1H161.3z"/>
		<path class="st0" d="M174.3,0.6v3.2h-0.3V0.6h-1.2V0.3h2.8v0.3H174.3z"/>
		<path class="st0" d="M178.9,3.8V2c0-0.4,0-0.9,0-1.3h0c-0.2,0.5-0.3,0.9-0.5,1.3l-0.7,1.8h-0.4L176.6,2c-0.2-0.5-0.3-0.9-0.5-1.3
			h0c0,0.4,0,0.9,0,1.3v1.8h-0.3V0.3h0.5l0.7,1.8l0.5,1.3h0c0.2-0.4,0.3-0.9,0.5-1.3l0.7-1.8h0.5v3.4H178.9z"/>
		<g>
			<path class="st1" d="M15.3,26.4C10.9,19,4.4,7.5,0,0h4.1l11.1,19l11-19h4.2L15.3,26.4z"/>
		</g>
	</g>
	<g>
		<path class="st2" d="M287.2,15.3c-0.5-0.1-6.8-0.8-6.8-0.8s-6.5-0.7-7-0.8c-0.7-0.1-2.7-0.3-3.2-0.5c-0.5-0.2-0.8-0.6-0.8-1.1
			c0-0.7,0.6-1.3,1.3-1.3c2.8,0,4.1,0,6.7,0V8.7h-7.2c-1.8,0-3.1,1.5-3.1,3.2c0,0.9,0.1,1.6,0.8,2.1c0.7,0.5,1.2,0.8,2,1
			c0.7,0.2,1,0.2,1.6,0.3c4,0.5,5.6,0.7,8.8,1c3.8,0.5,5.3,0.6,5.3,0.6c0.6,0.1,1.1,0.2,1.6,0.3c1.6,0.3,2.7,1.6,2.7,3.1
			c0,1.7-1.5,3.1-3.4,3.1h-19.2v1.9l19.2,0l0,0l0.2,0c2.9,0,5.3-2.3,5.3-5.1C292.1,17.7,290.1,15.6,287.2,15.3z"/>
		<rect x="262.1" y="0.3" class="st2" width="1.9" height="6.4"/>
		<rect x="262.1" y="8.8" class="st2" width="1.9" height="16.7"/>
		<path class="st2" d="M258.6,10.2c-0.2-0.4-0.5-0.7-0.8-1c-0.4-0.3-0.8-0.5-1.4-0.6c-0.5-0.1-0.7,0-1.1,0c-1.2,0.1-2,1-3.1,2.7
			c0,0-4.5,7.9-5.9,10.2c0-3.9,0-5.5,0-10c0-0.5-0.1-0.9-0.4-1.4c-0.2-0.4-0.5-0.7-0.8-1c-0.4-0.3-0.8-0.5-1.4-0.6
			c-0.5-0.1-0.7,0-1.1,0c-1.2,0.1-2,1-3.1,2.7c0,0-5.5,9.8-6.3,10.7l-2,3.5l2.4,0l8.3-14.2c0.6-0.9,0.9-0.9,1.2-0.9
			c0.2,0,0.5,0,0.8,0.2c0.3,0.2,0.5,0.6,0.5,1v13.9l2,0l8.3-14.2c0.6-0.9,0.9-0.9,1.2-0.9c0.2,0,0.5,0,0.8,0.2
			c0.3,0.2,0.5,0.6,0.5,1v13.8h2c0-5.4,0-8.5,0-13.9C259,11.1,258.9,10.6,258.6,10.2z"/>
		<path class="st2" d="M280.2,11.4c0.3,0.2,0.6,0.3,0.9,0.3c0.3,0,0.6-0.1,0.9-0.3c0.3-0.2,0.5-0.4,0.7-0.7c0.2-0.3,0.2-0.6,0.2-0.9
			c0-0.3-0.1-0.6-0.3-1c-0.2-0.3-0.4-0.5-0.7-0.7c-0.3-0.2-0.6-0.2-0.9-0.2c-0.3,0-0.6,0.1-0.9,0.2c-0.3,0.2-0.5,0.4-0.7,0.7
			c-0.2,0.3-0.3,0.6-0.3,1c0,0.3,0.1,0.6,0.3,0.9C279.7,11,279.9,11.2,280.2,11.4z M279.8,9c0.1-0.3,0.3-0.4,0.6-0.6
			c0.3-0.1,0.5-0.2,0.8-0.2c0.3,0,0.5,0.1,0.8,0.2c0.3,0.1,0.5,0.3,0.6,0.6c0.1,0.3,0.2,0.5,0.2,0.8c0,0.3-0.1,0.5-0.2,0.8
			c-0.1,0.3-0.3,0.4-0.6,0.6c-0.3,0.1-0.5,0.2-0.8,0.2c-0.3,0-0.5-0.1-0.8-0.2c-0.3-0.1-0.4-0.3-0.6-0.6c-0.1-0.3-0.2-0.5-0.2-0.8
			C279.6,9.5,279.6,9.2,279.8,9z"/>
		<path class="st2" d="M280.6,10h0.2c0.1,0,0.2,0,0.3,0.1c0.1,0.1,0.2,0.2,0.3,0.5l0.2,0.3h0.4l-0.2-0.4c-0.1-0.2-0.2-0.3-0.3-0.4
			c0,0-0.1-0.1-0.2-0.1c0.2,0,0.3-0.1,0.4-0.2c0.1-0.1,0.2-0.2,0.2-0.4c0-0.1,0-0.2-0.1-0.3c-0.1-0.1-0.1-0.2-0.3-0.2
			c-0.1,0-0.3-0.1-0.5-0.1h-0.7v2h0.3V10z M280.6,9.1h0.4c0.2,0,0.3,0,0.3,0c0.1,0,0.1,0.1,0.1,0.1c0,0,0.1,0.1,0.1,0.2
			c0,0.1,0,0.2-0.1,0.2c-0.1,0.1-0.2,0.1-0.4,0.1h-0.4V9.1z"/>
	</g>
</g>
</svg>
